<svg width="530" height="296" viewBox="0 0 530 296" fill="none" xmlns="http://www.w3.org/2000/svg">
<path d="M92.046 141.154C97.318 144.197 97.318 151.804 92.046 154.847L20.864 195.929C15.591 198.972 9 195.169 9 189.083V106.918C9 100.832 15.591 97.028 20.864 100.071L92.046 141.154Z" fill="#FF6C0A"/>
<path d="M39.1895 152V142.758H42.5093C43.6984 142.758 44.6019 142.976 45.2197 143.412C45.8418 143.847 46.1528 144.48 46.1528 145.31C46.1528 145.788 46.0428 146.196 45.8228 146.535C45.6027 146.873 45.279 147.123 44.8516 147.284C45.334 147.411 45.7043 147.648 45.9624 147.995C46.2205 148.342 46.3496 148.765 46.3496 149.264C46.3496 150.17 46.0618 150.851 45.4863 151.308C44.915 151.761 44.0666 151.992 42.9409 152H39.1895ZM41.4175 148.071V150.286H42.8774C43.2795 150.286 43.5884 150.195 43.8042 150.013C44.02 149.827 44.1279 149.567 44.1279 149.232C44.1279 148.462 43.745 148.075 42.979 148.071H41.4175ZM41.4175 146.611H42.5791C43.0658 146.607 43.4128 146.518 43.6201 146.344C43.8275 146.171 43.9312 145.915 43.9312 145.576C43.9312 145.187 43.819 144.908 43.5947 144.738C43.3704 144.565 43.0086 144.478 42.5093 144.478H41.4175V146.611ZM51.6372 147.068L50.9326 147.017C50.2598 147.017 49.8281 147.229 49.6377 147.652V152H47.4985V145.132H49.5044L49.5742 146.014C49.9339 145.341 50.4354 145.005 51.0786 145.005C51.3071 145.005 51.506 145.03 51.6753 145.081L51.6372 147.068ZM51.9102 148.502C51.9102 147.817 52.0435 147.208 52.3101 146.674C52.5767 146.137 52.9596 145.724 53.459 145.437C53.9583 145.149 54.5444 145.005 55.2173 145.005C56.2456 145.005 57.056 145.324 57.6484 145.963C58.2409 146.598 58.5371 147.464 58.5371 148.56V148.636C58.5371 149.706 58.2388 150.557 57.6421 151.188C57.0496 151.814 56.2456 152.127 55.23 152.127C54.2524 152.127 53.4674 151.835 52.875 151.251C52.2826 150.663 51.9631 149.867 51.9165 148.864L51.9102 148.502ZM54.0493 148.636C54.0493 149.271 54.1488 149.736 54.3477 150.032C54.5465 150.328 54.8407 150.477 55.23 150.477C55.9917 150.477 56.381 149.89 56.3979 148.718V148.502C56.3979 147.271 56.0044 146.655 55.2173 146.655C54.5021 146.655 54.1149 147.186 54.0557 148.249L54.0493 148.636ZM65.4116 149.182L66.1035 145.132H68.1538L66.5352 152H64.7261L63.5898 147.925L62.4473 152H60.6382L59.0195 145.132H61.0698L61.749 149.277L62.8408 145.132H64.3325L65.4116 149.182ZM72.521 150.07C72.521 149.888 72.4258 149.742 72.2354 149.632C72.0449 149.522 71.6831 149.408 71.1499 149.29C70.6167 149.171 70.1766 149.017 69.8296 148.826C69.4826 148.632 69.2181 148.397 69.0361 148.122C68.8542 147.847 68.7632 147.531 68.7632 147.176C68.7632 146.545 69.0234 146.027 69.5439 145.621C70.0645 145.21 70.7458 145.005 71.5879 145.005C72.4935 145.005 73.2214 145.21 73.7715 145.621C74.3216 146.031 74.5967 146.571 74.5967 147.239H72.4512C72.4512 146.689 72.1613 146.414 71.5815 146.414C71.3573 146.414 71.1689 146.478 71.0166 146.604C70.8643 146.727 70.7881 146.882 70.7881 147.068C70.7881 147.258 70.8812 147.413 71.0674 147.531C71.2536 147.65 71.5498 147.747 71.9561 147.823C72.3665 147.899 72.7262 147.99 73.0352 148.096C74.0677 148.452 74.584 149.089 74.584 150.007C74.584 150.633 74.3047 151.143 73.7461 151.537C73.1917 151.93 72.4723 152.127 71.5879 152.127C70.9997 152.127 70.4749 152.021 70.0137 151.81C69.5524 151.598 69.1927 151.31 68.9346 150.946C68.6764 150.582 68.5474 150.199 68.5474 149.797H70.5469C70.5553 150.115 70.6611 150.347 70.8643 150.496C71.0674 150.639 71.3276 150.711 71.645 150.711C71.937 150.711 72.1549 150.652 72.2988 150.534C72.4469 150.415 72.521 150.261 72.521 150.07ZM78.9131 152.127C77.8594 152.127 77.0067 151.814 76.355 151.188C75.7033 150.557 75.3774 149.738 75.3774 148.731V148.553C75.3774 147.851 75.5065 147.231 75.7646 146.693C76.027 146.156 76.4079 145.741 76.9072 145.449C77.4066 145.153 77.999 145.005 78.6846 145.005C79.6494 145.005 80.4111 145.305 80.9697 145.906C81.5283 146.503 81.8076 147.337 81.8076 148.407V149.239H77.5547C77.6309 149.624 77.798 149.926 78.0562 150.146C78.3143 150.367 78.6486 150.477 79.0591 150.477C79.7362 150.477 80.2651 150.24 80.646 149.766L81.6235 150.921C81.3569 151.289 80.9782 151.583 80.4873 151.803C80.0007 152.019 79.4759 152.127 78.9131 152.127ZM78.6719 146.655C78.0456 146.655 77.6732 147.07 77.5547 147.899H79.7129V147.734C79.7214 147.392 79.6346 147.127 79.4526 146.941C79.2707 146.75 79.0104 146.655 78.6719 146.655ZM86.8286 147.068L86.124 147.017C85.4512 147.017 85.0195 147.229 84.8291 147.652V152H82.6899V145.132H84.6958L84.7656 146.014C85.1253 145.341 85.6268 145.005 86.27 145.005C86.4985 145.005 86.6974 145.03 86.8667 145.081L86.8286 147.068Z" fill="black"/>
<path d="M38.5703 151.305H36.2911V141.256C36.2911 140.564 35.727 140 35.0336 140H18.2562C17.5635 140 17 140.564 17 141.256V155.129C17 155.822 17.5635 156.386 18.2562 156.386H20.9499V159.284C20.9499 159.521 21.1423 159.713 21.3796 159.713H23.3143C23.5517 159.713 23.744 159.521 23.744 159.284C23.744 159.046 23.5517 158.854 23.3143 158.854H21.8093V152.164H38.1406V158.854H27.1777C26.9404 158.854 26.748 159.046 26.748 159.284C26.748 159.521 26.9404 159.713 27.1777 159.713H38.5703C38.8076 159.713 39 159.521 39 159.284V151.735C39 151.498 38.8076 151.305 38.5703 151.305ZM18.2562 140.859H35.0336C35.2531 140.859 35.4317 141.037 35.4317 141.256V143.945H17.8594V141.256C17.8594 141.037 18.0374 140.859 18.2562 140.859ZM21.3796 151.305C21.1423 151.305 20.9499 151.497 20.9499 151.735V155.527H18.2562C18.0374 155.527 17.8594 155.348 17.8594 155.129V144.805H35.4317V151.305H21.3796Z" fill="black"/>
<path d="M31.5811 142.832C31.8185 142.832 32.0108 142.64 32.0108 142.402C32.0108 142.165 31.8185 141.973 31.5811 141.973H31.5787C31.3414 141.973 31.1502 142.165 31.1502 142.402C31.1502 142.64 31.3438 142.832 31.5811 142.832Z" fill="black"/>
<path d="M33.6024 142.832C33.8398 142.832 34.0321 142.64 34.0321 142.402C34.0321 142.165 33.8398 141.973 33.6024 141.973H33.6012C33.3639 141.973 33.1721 142.165 33.1721 142.402C33.1721 142.64 33.3651 142.832 33.6024 142.832Z" fill="black"/>
<path d="M29.5599 142.832C29.7972 142.832 29.9895 142.64 29.9895 142.402C29.9895 142.165 29.7972 141.973 29.5599 141.973H29.5574C29.3201 141.973 29.129 142.165 29.129 142.402C29.129 142.64 29.3225 142.832 29.5599 142.832Z" fill="black"/>
<path d="M19.6875 142.832H25.3161C25.5534 142.832 25.7458 142.64 25.7458 142.402C25.7458 142.165 25.5534 141.973 25.3161 141.973H19.6875C19.4502 141.973 19.2578 142.165 19.2578 142.402C19.2578 142.64 19.4502 142.832 19.6875 142.832Z" fill="black"/>
<path d="M30.8763 157.149L31.1665 155.542L31.6469 157.169C31.6483 157.174 31.6498 157.179 31.6514 157.184C31.7199 157.389 31.9108 157.527 32.1271 157.527H32.1314C32.3488 157.525 32.5388 157.384 32.6042 157.177C32.6054 157.173 32.6065 157.169 32.6075 157.166L33.071 155.541L33.379 157.153C33.4236 157.386 33.6487 157.539 33.8818 157.494C34.1149 157.45 34.2677 157.225 34.2232 156.992L33.6319 153.899C33.6316 153.897 33.6313 153.895 33.631 153.894C33.5854 153.67 33.3941 153.505 33.1657 153.493C32.9384 153.481 32.731 153.624 32.6624 153.841C32.6612 153.845 32.66 153.849 32.6589 153.853L32.1208 155.739L31.5629 153.849C31.5615 153.844 31.5601 153.84 31.5585 153.835C31.4867 153.62 31.2784 153.479 31.0517 153.493C30.8247 153.507 30.6351 153.673 30.5905 153.896C30.59 153.899 30.5895 153.901 30.589 153.904L30.0306 156.996C29.9885 157.229 30.1436 157.453 30.3771 157.495C30.6104 157.537 30.8341 157.382 30.8763 157.149Z" fill="black"/>
<path d="M35.5859 153.492C35.3486 153.492 35.1562 153.685 35.1562 153.922V157.094C35.1562 157.303 35.3069 157.482 35.513 157.518C35.5437 157.523 35.5661 157.527 35.9222 157.527C36.0926 157.527 36.3395 157.526 36.7001 157.524C36.9374 157.523 37.1288 157.329 37.1274 157.092C37.1261 156.855 36.9339 156.664 36.6977 156.664C36.6969 156.664 36.6961 156.664 36.6952 156.664C36.488 156.666 36.2289 156.667 36.0156 156.667V153.922C36.0156 153.685 35.8232 153.492 35.5859 153.492Z" fill="black"/>
<path d="M25.449 153.492C25.2117 153.492 25.0193 153.685 25.0193 153.922V155.025H23.6806V153.922C23.6806 153.685 23.4882 153.492 23.2509 153.492C23.0136 153.492 22.8212 153.685 22.8212 153.922V157.097C22.8212 157.334 23.0136 157.526 23.2509 157.526C23.4882 157.526 23.6806 157.334 23.6806 157.097V155.884H25.0193V157.097C25.0193 157.334 25.2117 157.526 25.449 157.526C25.6863 157.526 25.8787 157.334 25.8787 157.097V153.922C25.8787 153.685 25.6863 153.492 25.449 153.492Z" fill="black"/>
<path d="M28.0543 157.526C28.2916 157.526 28.484 157.334 28.484 157.097V154.352H28.9344C29.1718 154.352 29.3641 154.159 29.3641 153.922C29.3641 153.685 29.1718 153.492 28.9344 153.492H27.1802C26.9428 153.492 26.7505 153.685 26.7505 153.922C26.7505 154.159 26.9428 154.352 27.1802 154.352H27.6246V157.097C27.6246 157.334 27.8169 157.526 28.0543 157.526Z" fill="black"/>
<path d="M23.3747 145.905C23.1431 145.853 22.9135 145.999 22.862 146.231L22.0768 149.762C22.0253 149.993 22.1714 150.223 22.403 150.274C22.4344 150.281 22.4658 150.285 22.4967 150.285C22.6936 150.285 22.8712 150.148 22.9157 149.948L23.7008 146.418C23.7524 146.186 23.6064 145.956 23.3747 145.905Z" fill="black"/>
<path d="M20.871 146.303C20.6883 146.152 20.4173 146.177 20.266 146.36L19.0603 147.815C18.9286 147.974 18.9286 148.205 19.0603 148.364L20.266 149.819C20.351 149.922 20.4736 149.975 20.5972 149.975C20.6937 149.975 20.7909 149.943 20.8711 149.876C21.0538 149.725 21.0792 149.454 20.9279 149.271L19.9492 148.09L20.9279 146.908C21.0792 146.725 21.0538 146.454 20.871 146.303Z" fill="black"/>
<path d="M25.5105 146.36C25.3591 146.177 25.0882 146.152 24.9055 146.303C24.7227 146.454 24.6973 146.725 24.8487 146.908L25.8273 148.09L24.8487 149.271C24.6973 149.454 24.7227 149.725 24.9055 149.876C24.9857 149.943 25.0828 149.975 25.1794 149.975C25.3029 149.975 25.4255 149.922 25.5105 149.819L26.7162 148.364C26.8479 148.205 26.8479 147.974 26.7162 147.816L25.5105 146.36Z" fill="black"/>
<path d="M30.5486 147.512H33.8987C34.136 147.512 34.3284 147.32 34.3284 147.083C34.3284 146.845 34.136 146.653 33.8987 146.653H30.5486C30.3112 146.653 30.1189 146.845 30.1189 147.083C30.1189 147.32 30.3112 147.512 30.5486 147.512Z" fill="black"/>
<path d="M28.1152 147.512H28.8284C29.0657 147.512 29.2581 147.32 29.2581 147.083C29.2581 146.845 29.0657 146.653 28.8284 146.653H28.1152C27.8779 146.653 27.6855 146.845 27.6855 147.083C27.6855 147.32 27.8779 147.512 28.1152 147.512Z" fill="black"/>
<path d="M31.4653 148.856H28.1152C27.8779 148.856 27.6855 149.048 27.6855 149.286C27.6855 149.523 27.8779 149.715 28.1152 149.715H31.4653C31.7026 149.715 31.895 149.523 31.895 149.286C31.895 149.048 31.7026 148.856 31.4653 148.856Z" fill="black"/>
<path d="M33.8987 148.856H33.1855C32.9482 148.856 32.7558 149.048 32.7558 149.286C32.7558 149.523 32.9482 149.715 33.1855 149.715H33.8987C34.136 149.715 34.3284 149.523 34.3284 149.286C34.3284 149.048 34.136 148.856 33.8987 148.856Z" fill="black"/>
<path d="M25.2454 158.854C25.0081 158.854 24.8157 159.046 24.8157 159.284C24.8157 159.521 25.0081 159.713 25.2454 159.713H25.2479C25.4852 159.713 25.6763 159.521 25.6763 159.284C25.6763 159.046 25.4827 158.854 25.2454 158.854Z" fill="black"/>
<rect x="0.5" y="0.5" width="529" height="295" stroke="#27282C" stroke-dasharray="5 3"/>
<rect x="148" width="382" height="296" fill="#27282C"/>
<path d="M222.837 42H180.163C177.864 42 176 45.4355 176 49.6735V128.327C176 132.564 177.864 136 180.163 136H222.837C225.136 136 227 132.564 227 128.327V49.6735C227 45.4355 225.136 42 222.837 42Z" fill="#6B70FC"/>
<path d="M198 100.318V102.874H193.547V106.661H198V109.231H187.336V106.661H191.569V102.874H187.336V100.318H198ZM189.321 90.5327V93.7334H198V96.3042H189.321V99.4463H187.336V90.5327H189.321ZM187.336 86.0649L194.755 83.6846L187.336 81.3115V77.9277H198V80.5059H195.51L190.412 80.2568L198 82.835V84.5342L190.405 87.1196L195.51 86.8706H198V89.4414H187.336V86.0649ZM196.022 73.7163V69.2412H198V76.2871H187.336V73.7163H196.022ZM212.389 113.992C213.131 114.026 213.788 114.227 214.359 114.593C214.926 114.959 215.365 115.474 215.678 116.138C215.99 116.797 216.146 117.552 216.146 118.401C216.146 119.803 215.69 120.906 214.777 121.712C213.864 122.518 212.575 122.92 210.91 122.92H210.382C209.337 122.92 208.424 122.74 207.643 122.378C206.857 122.012 206.251 121.487 205.827 120.804C205.397 120.12 205.182 119.329 205.182 118.431C205.182 117.137 205.524 116.097 206.208 115.311C206.886 114.524 207.824 114.078 209.02 113.97V116.534C208.371 116.553 207.904 116.717 207.621 117.024C207.338 117.332 207.196 117.801 207.196 118.431C207.196 119.07 207.436 119.539 207.914 119.837C208.393 120.135 209.157 120.291 210.207 120.306H210.961C212.099 120.306 212.912 120.164 213.4 119.881C213.888 119.593 214.132 119.1 214.132 118.401C214.132 117.811 213.993 117.359 213.715 117.046C213.437 116.734 212.995 116.568 212.389 116.548V113.992ZM211.964 113.201C211.173 113.201 210.47 113.047 209.855 112.74C209.235 112.432 208.759 111.99 208.427 111.414C208.095 110.838 207.929 110.162 207.929 109.385C207.929 108.199 208.297 107.264 209.035 106.58C209.767 105.896 210.766 105.555 212.03 105.555H212.118C213.354 105.555 214.335 105.899 215.062 106.587C215.785 107.271 216.146 108.199 216.146 109.371C216.146 110.499 215.81 111.404 215.136 112.088C214.457 112.771 213.539 113.14 212.382 113.194L211.964 113.201ZM212.118 110.733C212.851 110.733 213.388 110.618 213.729 110.389C214.071 110.159 214.242 109.82 214.242 109.371C214.242 108.492 213.566 108.042 212.213 108.023H211.964C210.543 108.023 209.833 108.477 209.833 109.385C209.833 110.21 210.446 110.657 211.671 110.726L212.118 110.733ZM208.075 102.2L209.005 102.12C208.288 101.573 207.929 100.818 207.929 99.8564C207.929 99.0312 208.175 98.416 208.668 98.0107C209.162 97.6006 209.904 97.3882 210.895 97.3735H216V99.8491H210.998C210.597 99.8491 210.304 99.9297 210.119 100.091C209.928 100.252 209.833 100.545 209.833 100.97C209.833 101.453 210.023 101.812 210.404 102.046H216V104.515H208.075V102.2ZM206.105 93.1255H208.075V91.8218H209.789V93.1255H213.415C213.712 93.1255 213.92 93.0718 214.037 92.9644C214.154 92.8569 214.213 92.6445 214.213 92.3271C214.213 92.083 214.198 91.8779 214.169 91.7119H215.934C216.076 92.1562 216.146 92.6201 216.146 93.1035C216.146 93.9531 215.946 94.5806 215.546 94.9858C215.146 95.3911 214.538 95.5938 213.722 95.5938H209.789V96.6045H208.075V95.5938H206.105V93.1255ZM210.309 86.0503L210.25 86.8633C210.25 87.6396 210.495 88.1377 210.983 88.3574H216V90.8257H208.075V88.5112L209.093 88.4307C208.317 88.0156 207.929 87.437 207.929 86.6948C207.929 86.4312 207.958 86.2017 208.017 86.0063L210.309 86.0503ZM211.964 85.7354C211.173 85.7354 210.47 85.5815 209.855 85.2739C209.235 84.9663 208.759 84.5244 208.427 83.9482C208.095 83.3721 207.929 82.6958 207.929 81.9194C207.929 80.7329 208.297 79.7979 209.035 79.1143C209.767 78.4307 210.766 78.0889 212.03 78.0889H212.118C213.354 78.0889 214.335 78.4331 215.062 79.1216C215.785 79.8052 216.146 80.7329 216.146 81.9048C216.146 83.0327 215.81 83.9385 215.136 84.6221C214.457 85.3057 213.539 85.6743 212.382 85.728L211.964 85.7354ZM212.118 83.2671C212.851 83.2671 213.388 83.1523 213.729 82.9229C214.071 82.6934 214.242 82.354 214.242 81.9048C214.242 81.0259 213.566 80.5767 212.213 80.5571H211.964C210.543 80.5571 209.833 81.0112 209.833 81.9194C209.833 82.7446 210.446 83.1914 211.671 83.2598L212.118 83.2671ZM216 74.3975V76.873H204.75V74.3975H216ZM216 70.2666V72.7422H204.75V70.2666H216ZM216.146 64.9053C216.146 66.1211 215.785 67.105 215.062 67.8569C214.335 68.6089 213.39 68.9849 212.228 68.9849H212.023C211.212 68.9849 210.497 68.8359 209.877 68.5381C209.257 68.2354 208.778 67.7959 208.441 67.2197C208.1 66.6436 207.929 65.96 207.929 65.1689C207.929 64.0557 208.275 63.1768 208.969 62.5322C209.657 61.8877 210.619 61.5654 211.854 61.5654H212.814V66.4727C213.258 66.3848 213.607 66.1919 213.861 65.894C214.115 65.5962 214.242 65.2104 214.242 64.7368C214.242 63.9556 213.969 63.3452 213.422 62.9058L214.755 61.7778C215.18 62.0854 215.519 62.5225 215.773 63.0889C216.022 63.6504 216.146 64.2559 216.146 64.9053ZM209.833 65.1836C209.833 65.9062 210.312 66.3359 211.269 66.4727V63.9824H211.078C210.683 63.9727 210.377 64.0728 210.163 64.2827C209.943 64.4927 209.833 64.793 209.833 65.1836ZM210.309 55.772L210.25 56.585C210.25 57.3613 210.495 57.8594 210.983 58.0791H216V60.5474H208.075V58.2329L209.093 58.1523C208.317 57.7373 207.929 57.1587 207.929 56.4165C207.929 56.1528 207.958 55.9233 208.017 55.728L210.309 55.772Z" fill="black"/>
<path d="M325.837 42H283.163C279 42 279 50.0041 279 59.8776V243.122C279 252.996 279 261 283.163 261H325.837C330 261 330 252.996 330 243.122V59.8776C330 50.0041 330 42 325.837 42Z" fill="#6B70FC"/>
<path d="M299.336 209.383L306.755 207.003L299.336 204.63V201.246H310V203.824H307.51L302.412 203.575L310 206.153V207.853L302.405 210.438L307.51 210.189H310V212.76H299.336V209.383ZM310.146 195.885C310.146 197.101 309.785 198.084 309.062 198.836C308.335 199.588 307.39 199.964 306.228 199.964H306.023C305.212 199.964 304.497 199.815 303.877 199.518C303.257 199.215 302.778 198.775 302.441 198.199C302.1 197.623 301.929 196.939 301.929 196.148C301.929 195.035 302.275 194.156 302.969 193.512C303.657 192.867 304.619 192.545 305.854 192.545H306.814V197.452C307.258 197.364 307.607 197.171 307.861 196.874C308.115 196.576 308.242 196.19 308.242 195.716C308.242 194.935 307.969 194.325 307.422 193.885L308.755 192.757C309.18 193.065 309.519 193.502 309.773 194.068C310.022 194.63 310.146 195.235 310.146 195.885ZM303.833 196.163C303.833 196.886 304.312 197.315 305.269 197.452V194.962H305.078C304.683 194.952 304.377 195.052 304.163 195.262C303.943 195.472 303.833 195.772 303.833 196.163ZM307.773 187.396C307.563 187.396 307.395 187.506 307.268 187.726C307.141 187.945 307.009 188.363 306.873 188.978C306.736 189.593 306.558 190.101 306.338 190.501C306.113 190.902 305.842 191.207 305.525 191.417C305.208 191.627 304.844 191.732 304.434 191.732C303.706 191.732 303.108 191.432 302.639 190.831C302.166 190.23 301.929 189.444 301.929 188.473C301.929 187.428 302.166 186.588 302.639 185.953C303.113 185.318 303.735 185.001 304.507 185.001V187.477C303.872 187.477 303.555 187.811 303.555 188.48C303.555 188.739 303.628 188.956 303.774 189.132C303.916 189.308 304.094 189.396 304.309 189.396C304.529 189.396 304.707 189.288 304.844 189.073C304.98 188.858 305.093 188.517 305.181 188.048C305.269 187.574 305.374 187.159 305.496 186.803C305.906 185.611 306.641 185.016 307.7 185.016C308.423 185.016 309.011 185.338 309.465 185.982C309.919 186.622 310.146 187.452 310.146 188.473C310.146 189.151 310.024 189.757 309.78 190.289C309.536 190.821 309.204 191.236 308.784 191.534C308.364 191.832 307.922 191.981 307.458 191.981V189.674C307.825 189.664 308.093 189.542 308.264 189.308C308.43 189.073 308.513 188.773 308.513 188.407C308.513 188.07 308.445 187.818 308.308 187.652C308.171 187.481 307.993 187.396 307.773 187.396ZM307.773 179.706C307.563 179.706 307.395 179.815 307.268 180.035C307.141 180.255 307.009 180.672 306.873 181.288C306.736 181.903 306.558 182.411 306.338 182.811C306.113 183.211 305.842 183.517 305.525 183.727C305.208 183.937 304.844 184.042 304.434 184.042C303.706 184.042 303.108 183.741 302.639 183.141C302.166 182.54 301.929 181.754 301.929 180.782C301.929 179.737 302.166 178.897 302.639 178.263C303.113 177.628 303.735 177.311 304.507 177.311V179.786C303.872 179.786 303.555 180.121 303.555 180.79C303.555 181.048 303.628 181.266 303.774 181.441C303.916 181.617 304.094 181.705 304.309 181.705C304.529 181.705 304.707 181.598 304.844 181.383C304.98 181.168 305.093 180.826 305.181 180.357C305.269 179.884 305.374 179.469 305.496 179.112C305.906 177.921 306.641 177.325 307.7 177.325C308.423 177.325 309.011 177.647 309.465 178.292C309.919 178.932 310.146 179.762 310.146 180.782C310.146 181.461 310.024 182.066 309.78 182.599C309.536 183.131 309.204 183.546 308.784 183.844C308.364 184.142 307.922 184.291 307.458 184.291V181.983C307.825 181.974 308.093 181.852 308.264 181.617C308.43 181.383 308.513 181.083 308.513 180.716C308.513 180.379 308.445 180.128 308.308 179.962C308.171 179.791 307.993 179.706 307.773 179.706ZM310 171.7C309.839 171.788 309.602 171.866 309.29 171.935C309.861 172.389 310.146 173.023 310.146 173.839C310.146 174.586 309.922 175.221 309.473 175.743C309.019 176.266 308.45 176.527 307.766 176.527C306.907 176.527 306.257 176.209 305.818 175.575C305.378 174.94 305.159 174.017 305.159 172.806V172.044H304.741C304.014 172.044 303.65 172.359 303.65 172.989C303.65 173.575 303.938 173.868 304.514 173.868V176.336C303.748 176.336 303.125 176.012 302.646 175.362C302.168 174.708 301.929 173.875 301.929 172.865C301.929 171.854 302.175 171.056 302.668 170.47C303.162 169.884 303.838 169.583 304.697 169.569H308.206C308.933 169.559 309.49 169.447 309.875 169.232H310V171.7ZM308.389 173.246C308.389 172.938 308.323 172.684 308.191 172.484C308.059 172.279 307.91 172.132 307.744 172.044H306.477V172.762C306.477 173.622 306.863 174.051 307.634 174.051C307.859 174.051 308.042 173.976 308.184 173.824C308.32 173.673 308.389 173.48 308.389 173.246ZM305.979 168.485C305.178 168.485 304.47 168.353 303.855 168.089C303.24 167.826 302.766 167.447 302.434 166.954C302.097 166.461 301.929 165.887 301.929 165.233C301.929 164.408 302.207 163.763 302.764 163.299L302.075 163.211V160.97H309.7C310.398 160.97 311.003 161.134 311.516 161.461C312.034 161.783 312.429 162.252 312.703 162.867C312.981 163.482 313.12 164.195 313.12 165.006C313.12 165.587 313.01 166.151 312.791 166.698C312.571 167.24 312.285 167.655 311.934 167.943L310.483 166.91C311.025 166.451 311.296 165.846 311.296 165.094C311.296 164 310.735 163.453 309.612 163.453H309.363C309.885 163.927 310.146 164.525 310.146 165.248C310.146 166.214 309.778 166.996 309.041 167.591C308.298 168.187 307.307 168.485 306.067 168.485H305.979ZM306.133 166.009C306.782 166.009 307.297 165.887 307.678 165.643C308.054 165.399 308.242 165.057 308.242 164.618C308.242 164.085 308.064 163.697 307.708 163.453H304.375C304.014 163.692 303.833 164.076 303.833 164.603C303.833 165.042 304.031 165.387 304.426 165.636C304.817 165.885 305.386 166.009 306.133 166.009ZM310.146 155.733C310.146 156.949 309.785 157.933 309.062 158.685C308.335 159.437 307.39 159.813 306.228 159.813H306.023C305.212 159.813 304.497 159.664 303.877 159.366C303.257 159.063 302.778 158.624 302.441 158.048C302.1 157.472 301.929 156.788 301.929 155.997C301.929 154.884 302.275 154.005 302.969 153.36C303.657 152.716 304.619 152.394 305.854 152.394H306.814V157.301C307.258 157.213 307.607 157.02 307.861 156.722C308.115 156.424 308.242 156.039 308.242 155.565C308.242 154.784 307.969 154.173 307.422 153.734L308.755 152.606C309.18 152.914 309.519 153.351 309.773 153.917C310.022 154.479 310.146 155.084 310.146 155.733ZM303.833 156.012C303.833 156.734 304.312 157.164 305.269 157.301V154.811H305.078C304.683 154.801 304.377 154.901 304.163 155.111C303.943 155.321 303.833 155.621 303.833 156.012ZM307.773 147.245C307.563 147.245 307.395 147.354 307.268 147.574C307.141 147.794 307.009 148.211 306.873 148.827C306.736 149.442 306.558 149.95 306.338 150.35C306.113 150.75 305.842 151.056 305.525 151.266C305.208 151.476 304.844 151.581 304.434 151.581C303.706 151.581 303.108 151.28 302.639 150.68C302.166 150.079 301.929 149.293 301.929 148.321C301.929 147.276 302.166 146.437 302.639 145.802C303.113 145.167 303.735 144.85 304.507 144.85V147.325C303.872 147.325 303.555 147.66 303.555 148.329C303.555 148.587 303.628 148.805 303.774 148.98C303.916 149.156 304.094 149.244 304.309 149.244C304.529 149.244 304.707 149.137 304.844 148.922C304.98 148.707 305.093 148.365 305.181 147.896C305.269 147.423 305.374 147.008 305.496 146.651C305.906 145.46 306.641 144.864 307.7 144.864C308.423 144.864 309.011 145.187 309.465 145.831C309.919 146.471 310.146 147.301 310.146 148.321C310.146 149 310.024 149.605 309.78 150.138C309.536 150.67 309.204 151.085 308.784 151.383C308.364 151.681 307.922 151.83 307.458 151.83V149.522C307.825 149.513 308.093 149.391 308.264 149.156C308.43 148.922 308.513 148.622 308.513 148.255C308.513 147.918 308.445 147.667 308.308 147.501C308.171 147.33 307.993 147.245 307.773 147.245ZM307.166 134.354C306.79 134.354 306.497 134.488 306.287 134.757C306.077 135.021 305.859 135.487 305.635 136.156C305.41 136.825 305.193 137.372 304.983 137.796C304.304 139.178 303.372 139.869 302.185 139.869C301.594 139.869 301.074 139.698 300.625 139.356C300.171 139.01 299.819 138.521 299.57 137.892C299.316 137.262 299.189 136.554 299.189 135.768C299.189 135.001 299.326 134.315 299.6 133.709C299.873 133.099 300.264 132.625 300.771 132.289C301.274 131.952 301.851 131.783 302.5 131.783V134.347C302.065 134.347 301.729 134.481 301.489 134.75C301.25 135.013 301.13 135.372 301.13 135.826C301.13 136.285 301.233 136.649 301.438 136.917C301.638 137.181 301.895 137.313 302.207 137.313C302.48 137.313 302.729 137.167 302.954 136.874C303.174 136.581 303.403 136.065 303.643 135.328C303.877 134.591 304.131 133.985 304.404 133.512C305.068 132.359 305.984 131.783 307.151 131.783C308.083 131.783 308.816 132.135 309.348 132.838C309.88 133.541 310.146 134.505 310.146 135.731C310.146 136.595 309.993 137.379 309.685 138.082C309.373 138.78 308.948 139.308 308.411 139.664C307.869 140.016 307.246 140.191 306.543 140.191V137.613C307.114 137.613 307.537 137.467 307.81 137.174C308.079 136.876 308.213 136.395 308.213 135.731C308.213 135.306 308.123 134.972 307.942 134.728C307.756 134.479 307.498 134.354 307.166 134.354ZM310.146 126.744C310.146 127.96 309.785 128.944 309.062 129.696C308.335 130.448 307.39 130.824 306.228 130.824H306.023C305.212 130.824 304.497 130.675 303.877 130.377C303.257 130.074 302.778 129.635 302.441 129.059C302.1 128.482 301.929 127.799 301.929 127.008C301.929 125.895 302.275 125.016 302.969 124.371C303.657 123.727 304.619 123.404 305.854 123.404H306.814V128.312C307.258 128.224 307.607 128.031 307.861 127.733C308.115 127.435 308.242 127.049 308.242 126.576C308.242 125.794 307.969 125.184 307.422 124.745L308.755 123.617C309.18 123.924 309.519 124.361 309.773 124.928C310.022 125.489 310.146 126.095 310.146 126.744ZM303.833 127.022C303.833 127.745 304.312 128.175 305.269 128.312V125.821H305.078C304.683 125.812 304.377 125.912 304.163 126.122C303.943 126.332 303.833 126.632 303.833 127.022ZM304.309 117.611L304.25 118.424C304.25 119.2 304.495 119.698 304.983 119.918H310V122.386H302.075V120.072L303.093 119.991C302.317 119.576 301.929 118.998 301.929 118.255C301.929 117.992 301.958 117.762 302.017 117.567L304.309 117.611ZM307.063 113.429L302.075 112.176V109.576L310 112.162V114.681L302.075 117.267V114.659L307.063 113.429ZM310 106.236V108.712H302.075V106.236H310ZM300.032 108.858C299.68 108.858 299.392 108.731 299.167 108.478C298.943 108.224 298.831 107.894 298.831 107.489C298.831 107.083 298.943 106.754 299.167 106.5C299.392 106.246 299.68 106.119 300.032 106.119C300.383 106.119 300.671 106.246 300.896 106.5C301.121 106.754 301.233 107.083 301.233 107.489C301.233 107.894 301.121 108.224 300.896 108.478C300.671 108.731 300.383 108.858 300.032 108.858ZM308.242 101.358C308.242 101.012 308.149 100.743 307.964 100.553C307.773 100.362 307.51 100.27 307.173 100.274V97.96C308.042 97.96 308.755 98.2725 309.312 98.8975C309.868 99.5176 310.146 100.318 310.146 101.3C310.146 102.452 309.785 103.36 309.062 104.024C308.34 104.688 307.339 105.021 306.06 105.021H305.957C305.156 105.021 304.451 104.874 303.84 104.581C303.225 104.283 302.754 103.856 302.427 103.299C302.095 102.743 301.929 102.083 301.929 101.322C301.929 100.292 302.214 99.4736 302.786 98.8682C303.357 98.2627 304.131 97.96 305.107 97.96V100.274C304.697 100.274 304.382 100.375 304.163 100.575C303.943 100.775 303.833 101.043 303.833 101.38C303.833 102.02 304.241 102.394 305.056 102.501C305.315 102.535 305.671 102.552 306.125 102.552C306.921 102.552 307.473 102.457 307.781 102.267C308.088 102.076 308.242 101.773 308.242 101.358ZM310.146 93.082C310.146 94.2979 309.785 95.2817 309.062 96.0337C308.335 96.7856 307.39 97.1616 306.228 97.1616H306.023C305.212 97.1616 304.497 97.0127 303.877 96.7148C303.257 96.4121 302.778 95.9727 302.441 95.3965C302.1 94.8203 301.929 94.1367 301.929 93.3457C301.929 92.2324 302.275 91.3535 302.969 90.709C303.657 90.0645 304.619 89.7422 305.854 89.7422H306.814V94.6494C307.258 94.5615 307.607 94.3687 307.861 94.0708C308.115 93.7729 308.242 93.3872 308.242 92.9136C308.242 92.1323 307.969 91.522 307.422 91.0825L308.755 89.9546C309.18 90.2622 309.519 90.6992 309.773 91.2656C310.022 91.8271 310.146 92.4326 310.146 93.082ZM303.833 93.3604C303.833 94.083 304.312 94.5127 305.269 94.6494V92.1592H305.078C304.683 92.1494 304.377 92.2495 304.163 92.4595C303.943 92.6694 303.833 92.9697 303.833 93.3604Z" fill="black"/>
<path d="M222.837 167H180.163C177.864 167 176 170.436 176 174.673V253.327C176 257.564 177.864 261 180.163 261H222.837C225.136 261 227 257.564 227 253.327V174.673C227 170.436 225.136 167 222.837 167Z" fill="#AC5E7A"/>
<path d="M187.336 244.723L194.755 242.343L187.336 239.97V236.586H198V239.164H195.51L190.412 238.915L198 241.493V243.192L190.405 245.778L195.51 245.529H198V248.1H187.336V244.723ZM198.146 231.225C198.146 232.44 197.785 233.424 197.062 234.176C196.335 234.928 195.39 235.304 194.228 235.304H194.023C193.212 235.304 192.497 235.155 191.877 234.857C191.257 234.555 190.778 234.115 190.441 233.539C190.1 232.963 189.929 232.279 189.929 231.488C189.929 230.375 190.275 229.496 190.969 228.852C191.657 228.207 192.619 227.885 193.854 227.885H194.814V232.792C195.258 232.704 195.607 232.511 195.861 232.213C196.115 231.916 196.242 231.53 196.242 231.056C196.242 230.275 195.969 229.665 195.422 229.225L196.755 228.097C197.18 228.405 197.519 228.842 197.773 229.408C198.022 229.97 198.146 230.575 198.146 231.225ZM191.833 231.503C191.833 232.226 192.312 232.655 193.269 232.792V230.302H193.078C192.683 230.292 192.377 230.392 192.163 230.602C191.943 230.812 191.833 231.112 191.833 231.503ZM195.773 222.736C195.563 222.736 195.395 222.846 195.268 223.065C195.141 223.285 195.009 223.703 194.873 224.318C194.736 224.933 194.558 225.441 194.338 225.841C194.113 226.242 193.842 226.547 193.525 226.757C193.208 226.967 192.844 227.072 192.434 227.072C191.706 227.072 191.108 226.771 190.639 226.171C190.166 225.57 189.929 224.784 189.929 223.812C189.929 222.768 190.166 221.928 190.639 221.293C191.113 220.658 191.735 220.341 192.507 220.341V222.816C191.872 222.816 191.555 223.151 191.555 223.82C191.555 224.079 191.628 224.296 191.774 224.472C191.916 224.647 192.094 224.735 192.309 224.735C192.529 224.735 192.707 224.628 192.844 224.413C192.98 224.198 193.093 223.856 193.181 223.388C193.269 222.914 193.374 222.499 193.496 222.143C193.906 220.951 194.641 220.355 195.7 220.355C196.423 220.355 197.011 220.678 197.465 221.322C197.919 221.962 198.146 222.792 198.146 223.812C198.146 224.491 198.024 225.097 197.78 225.629C197.536 226.161 197.204 226.576 196.784 226.874C196.364 227.172 195.922 227.321 195.458 227.321V225.014C195.825 225.004 196.093 224.882 196.264 224.647C196.43 224.413 196.513 224.113 196.513 223.747C196.513 223.41 196.445 223.158 196.308 222.992C196.171 222.821 195.993 222.736 195.773 222.736ZM195.773 215.045C195.563 215.045 195.395 215.155 195.268 215.375C195.141 215.595 195.009 216.012 194.873 216.627C194.736 217.243 194.558 217.75 194.338 218.151C194.113 218.551 193.842 218.856 193.525 219.066C193.208 219.276 192.844 219.381 192.434 219.381C191.706 219.381 191.108 219.081 190.639 218.48C190.166 217.88 189.929 217.094 189.929 216.122C189.929 215.077 190.166 214.237 190.639 213.603C191.113 212.968 191.735 212.65 192.507 212.65V215.126C191.872 215.126 191.555 215.46 191.555 216.129C191.555 216.388 191.628 216.605 191.774 216.781C191.916 216.957 192.094 217.045 192.309 217.045C192.529 217.045 192.707 216.938 192.844 216.723C192.98 216.508 193.093 216.166 193.181 215.697C193.269 215.224 193.374 214.809 193.496 214.452C193.906 213.261 194.641 212.665 195.7 212.665C196.423 212.665 197.011 212.987 197.465 213.632C197.919 214.271 198.146 215.102 198.146 216.122C198.146 216.801 198.024 217.406 197.78 217.938C197.536 218.471 197.204 218.886 196.784 219.184C196.364 219.481 195.922 219.63 195.458 219.63V217.323C195.825 217.313 196.093 217.191 196.264 216.957C196.43 216.723 196.513 216.422 196.513 216.056C196.513 215.719 196.445 215.468 196.308 215.302C196.171 215.131 195.993 215.045 195.773 215.045ZM198 207.04C197.839 207.128 197.602 207.206 197.29 207.274C197.861 207.729 198.146 208.363 198.146 209.179C198.146 209.926 197.922 210.561 197.473 211.083C197.019 211.605 196.45 211.867 195.766 211.867C194.907 211.867 194.257 211.549 193.818 210.915C193.378 210.28 193.159 209.357 193.159 208.146V207.384H192.741C192.014 207.384 191.65 207.699 191.65 208.329C191.65 208.915 191.938 209.208 192.514 209.208V211.676C191.748 211.676 191.125 211.352 190.646 210.702C190.168 210.048 189.929 209.215 189.929 208.205C189.929 207.194 190.175 206.396 190.668 205.81C191.162 205.224 191.838 204.923 192.697 204.909H196.206C196.933 204.899 197.49 204.787 197.875 204.572H198V207.04ZM196.389 208.585C196.389 208.278 196.323 208.024 196.191 207.824C196.059 207.619 195.91 207.472 195.744 207.384H194.477V208.102C194.477 208.961 194.863 209.391 195.634 209.391C195.859 209.391 196.042 209.315 196.184 209.164C196.32 209.013 196.389 208.82 196.389 208.585ZM193.979 203.825C193.178 203.825 192.47 203.693 191.855 203.429C191.24 203.166 190.766 202.787 190.434 202.294C190.097 201.801 189.929 201.227 189.929 200.573C189.929 199.748 190.207 199.103 190.764 198.639L190.075 198.551V196.31H197.7C198.398 196.31 199.003 196.474 199.516 196.801C200.034 197.123 200.429 197.592 200.703 198.207C200.981 198.822 201.12 199.535 201.12 200.346C201.12 200.927 201.01 201.491 200.791 202.038C200.571 202.58 200.285 202.995 199.934 203.283L198.483 202.25C199.025 201.791 199.296 201.186 199.296 200.434C199.296 199.34 198.735 198.793 197.612 198.793H197.363C197.885 199.267 198.146 199.865 198.146 200.587C198.146 201.554 197.778 202.335 197.041 202.931C196.298 203.527 195.307 203.825 194.067 203.825H193.979ZM194.133 201.349C194.782 201.349 195.297 201.227 195.678 200.983C196.054 200.739 196.242 200.397 196.242 199.958C196.242 199.425 196.064 199.037 195.708 198.793H192.375C192.014 199.032 191.833 199.416 191.833 199.943C191.833 200.382 192.031 200.727 192.426 200.976C192.817 201.225 193.386 201.349 194.133 201.349ZM198.146 191.073C198.146 192.289 197.785 193.273 197.062 194.025C196.335 194.777 195.39 195.153 194.228 195.153H194.023C193.212 195.153 192.497 195.004 191.877 194.706C191.257 194.403 190.778 193.964 190.441 193.388C190.1 192.812 189.929 192.128 189.929 191.337C189.929 190.224 190.275 189.345 190.969 188.7C191.657 188.056 192.619 187.733 193.854 187.733H194.814V192.641C195.258 192.553 195.607 192.36 195.861 192.062C196.115 191.764 196.242 191.378 196.242 190.905C196.242 190.124 195.969 189.513 195.422 189.074L196.755 187.946C197.18 188.253 197.519 188.69 197.773 189.257C198.022 189.818 198.146 190.424 198.146 191.073ZM191.833 191.352C191.833 192.074 192.312 192.504 193.269 192.641V190.15H193.078C192.683 190.141 192.377 190.241 192.163 190.451C191.943 190.661 191.833 190.961 191.833 191.352ZM195.773 182.584C195.563 182.584 195.395 182.694 195.268 182.914C195.141 183.134 195.009 183.551 194.873 184.167C194.736 184.782 194.558 185.29 194.338 185.69C194.113 186.09 193.842 186.396 193.525 186.605C193.208 186.815 192.844 186.92 192.434 186.92C191.706 186.92 191.108 186.62 190.639 186.02C190.166 185.419 189.929 184.633 189.929 183.661C189.929 182.616 190.166 181.776 190.639 181.142C191.113 180.507 191.735 180.189 192.507 180.189V182.665C191.872 182.665 191.555 183 191.555 183.668C191.555 183.927 191.628 184.145 191.774 184.32C191.916 184.496 192.094 184.584 192.309 184.584C192.529 184.584 192.707 184.477 192.844 184.262C192.98 184.047 193.093 183.705 193.181 183.236C193.269 182.763 193.374 182.348 193.496 181.991C193.906 180.8 194.641 180.204 195.7 180.204C196.423 180.204 197.011 180.526 197.465 181.171C197.919 181.811 198.146 182.641 198.146 183.661C198.146 184.34 198.024 184.945 197.78 185.478C197.536 186.01 197.204 186.425 196.784 186.723C196.364 187.021 195.922 187.169 195.458 187.169V184.862C195.825 184.853 196.093 184.73 196.264 184.496C196.43 184.262 196.513 183.961 196.513 183.595C196.513 183.258 196.445 183.007 196.308 182.841C196.171 182.67 195.993 182.584 195.773 182.584ZM212.235 241.574V242.965H216V245.536H205.336V241.339C205.336 240.075 205.617 239.086 206.178 238.373C206.74 237.66 207.533 237.304 208.559 237.304C209.301 237.304 209.916 237.455 210.404 237.758C210.893 238.056 211.288 238.524 211.591 239.164L215.89 236.938H216V239.691L212.235 241.574ZM210.25 242.965V241.339C210.25 240.851 210.124 240.485 209.87 240.241C209.611 239.992 209.252 239.867 208.793 239.867C208.334 239.867 207.975 239.992 207.716 240.241C207.453 240.49 207.321 240.856 207.321 241.339V242.965H210.25ZM216.146 232.03C216.146 233.246 215.785 234.23 215.062 234.982C214.335 235.734 213.39 236.11 212.228 236.11H212.023C211.212 236.11 210.497 235.961 209.877 235.663C209.257 235.36 208.778 234.921 208.441 234.345C208.1 233.769 207.929 233.085 207.929 232.294C207.929 231.181 208.275 230.302 208.969 229.657C209.657 229.013 210.619 228.69 211.854 228.69H212.814V233.598C213.258 233.51 213.607 233.317 213.861 233.019C214.115 232.721 214.242 232.335 214.242 231.862C214.242 231.081 213.969 230.47 213.422 230.031L214.755 228.903C215.18 229.21 215.519 229.647 215.773 230.214C216.022 230.775 216.146 231.381 216.146 232.03ZM209.833 232.309C209.833 233.031 210.312 233.461 211.269 233.598V231.107H211.078C210.683 231.098 210.377 231.198 210.163 231.408C209.943 231.618 209.833 231.918 209.833 232.309ZM213.773 223.542C213.563 223.542 213.395 223.651 213.268 223.871C213.141 224.091 213.009 224.508 212.873 225.124C212.736 225.739 212.558 226.247 212.338 226.647C212.113 227.047 211.842 227.353 211.525 227.562C211.208 227.772 210.844 227.877 210.434 227.877C209.706 227.877 209.108 227.577 208.639 226.977C208.166 226.376 207.929 225.59 207.929 224.618C207.929 223.573 208.166 222.733 208.639 222.099C209.113 221.464 209.735 221.146 210.507 221.146V223.622C209.872 223.622 209.555 223.957 209.555 224.625C209.555 224.884 209.628 225.102 209.774 225.277C209.916 225.453 210.094 225.541 210.309 225.541C210.529 225.541 210.707 225.434 210.844 225.219C210.98 225.004 211.093 224.662 211.181 224.193C211.269 223.72 211.374 223.305 211.496 222.948C211.906 221.757 212.641 221.161 213.7 221.161C214.423 221.161 215.011 221.483 215.465 222.128C215.919 222.768 216.146 223.598 216.146 224.618C216.146 225.297 216.024 225.902 215.78 226.435C215.536 226.967 215.204 227.382 214.784 227.68C214.364 227.978 213.922 228.126 213.458 228.126V225.819C213.825 225.81 214.093 225.688 214.264 225.453C214.43 225.219 214.513 224.918 214.513 224.552C214.513 224.215 214.445 223.964 214.308 223.798C214.171 223.627 213.993 223.542 213.773 223.542ZM211.964 220.312C211.173 220.312 210.47 220.158 209.855 219.85C209.235 219.542 208.759 219.101 208.427 218.524C208.095 217.948 207.929 217.272 207.929 216.496C207.929 215.309 208.297 214.374 209.035 213.69C209.767 213.007 210.766 212.665 212.03 212.665H212.118C213.354 212.665 214.335 213.009 215.062 213.698C215.785 214.381 216.146 215.309 216.146 216.481C216.146 217.609 215.81 218.515 215.136 219.198C214.457 219.882 213.539 220.25 212.382 220.304L211.964 220.312ZM212.118 217.843C212.851 217.843 213.388 217.729 213.729 217.499C214.071 217.27 214.242 216.93 214.242 216.481C214.242 215.602 213.566 215.153 212.213 215.133H211.964C210.543 215.133 209.833 215.587 209.833 216.496C209.833 217.321 210.446 217.768 211.671 217.836L212.118 217.843ZM215.143 206.857C215.812 207.379 216.146 208.085 216.146 208.974C216.146 209.843 215.895 210.502 215.392 210.951C214.884 211.396 214.157 211.618 213.209 211.618H208.075V209.149H213.224C213.903 209.149 214.242 208.82 214.242 208.161C214.242 207.594 214.04 207.191 213.634 206.952H208.075V204.469H216V206.784L215.143 206.857ZM210.309 198.317L210.25 199.13C210.25 199.906 210.495 200.404 210.983 200.624H216V203.092H208.075V200.778L209.093 200.697C208.317 200.282 207.929 199.704 207.929 198.961C207.929 198.698 207.958 198.468 208.017 198.273L210.309 198.317ZM214.242 194.223C214.242 193.876 214.149 193.607 213.964 193.417C213.773 193.227 213.51 193.134 213.173 193.139V190.824C214.042 190.824 214.755 191.137 215.312 191.762C215.868 192.382 216.146 193.183 216.146 194.164C216.146 195.316 215.785 196.225 215.062 196.889C214.34 197.553 213.339 197.885 212.06 197.885H211.957C211.156 197.885 210.451 197.738 209.84 197.445C209.225 197.147 208.754 196.72 208.427 196.164C208.095 195.607 207.929 194.948 207.929 194.186C207.929 193.156 208.214 192.338 208.786 191.732C209.357 191.127 210.131 190.824 211.107 190.824V193.139C210.697 193.139 210.382 193.239 210.163 193.439C209.943 193.639 209.833 193.908 209.833 194.245C209.833 194.884 210.241 195.258 211.056 195.365C211.315 195.399 211.671 195.417 212.125 195.417C212.921 195.417 213.473 195.321 213.781 195.131C214.088 194.94 214.242 194.638 214.242 194.223ZM216.146 185.946C216.146 187.162 215.785 188.146 215.062 188.898C214.335 189.65 213.39 190.026 212.228 190.026H212.023C211.212 190.026 210.497 189.877 209.877 189.579C209.257 189.276 208.778 188.837 208.441 188.261C208.1 187.685 207.929 187.001 207.929 186.21C207.929 185.097 208.275 184.218 208.969 183.573C209.657 182.929 210.619 182.606 211.854 182.606H212.814V187.514C213.258 187.426 213.607 187.233 213.861 186.935C214.115 186.637 214.242 186.251 214.242 185.778C214.242 184.997 213.969 184.386 213.422 183.947L214.755 182.819C215.18 183.126 215.519 183.563 215.773 184.13C216.022 184.691 216.146 185.297 216.146 185.946ZM209.833 186.225C209.833 186.947 210.312 187.377 211.269 187.514V185.023H211.078C210.683 185.014 210.377 185.114 210.163 185.324C209.943 185.534 209.833 185.834 209.833 186.225Z" fill="black"/>
<path d="M428.837 171H386.163C383.864 171 382 174.289 382 178.347V253.653C382 257.711 383.864 261 386.163 261H428.837C431.136 261 433 257.711 433 253.653V178.347C433 174.289 431.136 171 428.837 171Z" fill="#FF6C0A"/>
<path d="M401.602 248.93V252.246H405V254.303H396.469V248.596H398.057V252.246H400.02V248.93H401.602ZM405 244.459C404.871 244.529 404.682 244.592 404.432 244.646C404.889 245.01 405.117 245.518 405.117 246.17C405.117 246.768 404.938 247.275 404.578 247.693C404.215 248.111 403.76 248.32 403.213 248.32C402.525 248.32 402.006 248.066 401.654 247.559C401.303 247.051 401.127 246.312 401.127 245.344V244.734H400.793C400.211 244.734 399.92 244.986 399.92 245.49C399.92 245.959 400.15 246.193 400.611 246.193V248.168C399.998 248.168 399.5 247.908 399.117 247.389C398.734 246.865 398.543 246.199 398.543 245.391C398.543 244.582 398.74 243.943 399.135 243.475C399.529 243.006 400.07 242.766 400.758 242.754H403.564C404.146 242.746 404.592 242.656 404.9 242.484H405V244.459ZM403.711 245.695C403.711 245.449 403.658 245.246 403.553 245.086C403.447 244.922 403.328 244.805 403.195 244.734H402.182V245.309C402.182 245.996 402.49 246.34 403.107 246.34C403.287 246.34 403.434 246.279 403.547 246.158C403.656 246.037 403.711 245.883 403.711 245.695ZM402.639 239.109L403.195 239.666H405V241.641H395.994V239.666H400.775L400.512 239.467L398.66 237.979V235.611L401.268 237.832L405 235.465V237.727L402.639 239.109ZM405.117 232.143C405.117 233.115 404.828 233.902 404.25 234.504C403.668 235.105 402.912 235.406 401.982 235.406H401.818C401.17 235.406 400.598 235.287 400.102 235.049C399.605 234.807 399.223 234.455 398.953 233.994C398.68 233.533 398.543 232.986 398.543 232.354C398.543 231.463 398.82 230.76 399.375 230.244C399.926 229.729 400.695 229.471 401.684 229.471H402.451V233.396C402.807 233.326 403.086 233.172 403.289 232.934C403.492 232.695 403.594 232.387 403.594 232.008C403.594 231.383 403.375 230.895 402.938 230.543L404.004 229.641C404.344 229.887 404.615 230.236 404.818 230.689C405.018 231.139 405.117 231.623 405.117 232.143ZM400.066 232.365C400.066 232.943 400.449 233.287 401.215 233.396V231.404H401.062C400.746 231.396 400.502 231.477 400.33 231.645C400.154 231.812 400.066 232.053 400.066 232.365ZM396.469 222.891L402.404 220.986L396.469 219.088V216.381H405V218.443H403.008L398.93 218.244L405 220.307V221.666L398.924 223.734L403.008 223.535H405V225.592H396.469V222.891ZM405.117 212.092C405.117 213.064 404.828 213.852 404.25 214.453C403.668 215.055 402.912 215.355 401.982 215.355H401.818C401.17 215.355 400.598 215.236 400.102 214.998C399.605 214.756 399.223 214.404 398.953 213.943C398.68 213.482 398.543 212.936 398.543 212.303C398.543 211.412 398.82 210.709 399.375 210.193C399.926 209.678 400.695 209.42 401.684 209.42H402.451V213.346C402.807 213.275 403.086 213.121 403.289 212.883C403.492 212.645 403.594 212.336 403.594 211.957C403.594 211.332 403.375 210.844 402.938 210.492L404.004 209.59C404.344 209.836 404.615 210.186 404.818 210.639C405.018 211.088 405.117 211.572 405.117 212.092ZM400.066 212.314C400.066 212.893 400.449 213.236 401.215 213.346V211.354H401.062C400.746 211.346 400.502 211.426 400.33 211.594C400.154 211.762 400.066 212.002 400.066 212.314ZM403.219 205.301C403.051 205.301 402.916 205.389 402.814 205.564C402.713 205.74 402.607 206.074 402.498 206.566C402.389 207.059 402.246 207.465 402.07 207.785C401.891 208.105 401.674 208.35 401.42 208.518C401.166 208.686 400.875 208.77 400.547 208.77C399.965 208.77 399.486 208.529 399.111 208.049C398.732 207.568 398.543 206.939 398.543 206.162C398.543 205.326 398.732 204.654 399.111 204.146C399.49 203.639 399.988 203.385 400.605 203.385V205.365C400.098 205.365 399.844 205.633 399.844 206.168C399.844 206.375 399.902 206.549 400.02 206.689C400.133 206.83 400.275 206.9 400.447 206.9C400.623 206.9 400.766 206.814 400.875 206.643C400.984 206.471 401.074 206.197 401.145 205.822C401.215 205.443 401.299 205.111 401.396 204.826C401.725 203.873 402.312 203.396 403.16 203.396C403.738 203.396 404.209 203.654 404.572 204.17C404.936 204.682 405.117 205.346 405.117 206.162C405.117 206.705 405.02 207.189 404.824 207.615C404.629 208.041 404.363 208.373 404.027 208.611C403.691 208.85 403.338 208.969 402.967 208.969V207.123C403.26 207.115 403.475 207.018 403.611 206.83C403.744 206.643 403.811 206.402 403.811 206.109C403.811 205.84 403.756 205.639 403.646 205.506C403.537 205.369 403.395 205.301 403.219 205.301ZM403.219 199.148C403.051 199.148 402.916 199.236 402.814 199.412C402.713 199.588 402.607 199.922 402.498 200.414C402.389 200.906 402.246 201.312 402.07 201.633C401.891 201.953 401.674 202.197 401.42 202.365C401.166 202.533 400.875 202.617 400.547 202.617C399.965 202.617 399.486 202.377 399.111 201.896C398.732 201.416 398.543 200.787 398.543 200.01C398.543 199.174 398.732 198.502 399.111 197.994C399.49 197.486 399.988 197.232 400.605 197.232V199.213C400.098 199.213 399.844 199.48 399.844 200.016C399.844 200.223 399.902 200.396 400.02 200.537C400.133 200.678 400.275 200.748 400.447 200.748C400.623 200.748 400.766 200.662 400.875 200.49C400.984 200.318 401.074 200.045 401.145 199.67C401.215 199.291 401.299 198.959 401.396 198.674C401.725 197.721 402.312 197.244 403.16 197.244C403.738 197.244 404.209 197.502 404.572 198.018C404.936 198.529 405.117 199.193 405.117 200.01C405.117 200.553 405.02 201.037 404.824 201.463C404.629 201.889 404.363 202.221 404.027 202.459C403.691 202.697 403.338 202.816 402.967 202.816V200.971C403.26 200.963 403.475 200.865 403.611 200.678C403.744 200.49 403.811 200.25 403.811 199.957C403.811 199.688 403.756 199.486 403.646 199.354C403.537 199.217 403.395 199.148 403.219 199.148ZM405 192.744C404.871 192.814 404.682 192.877 404.432 192.932C404.889 193.295 405.117 193.803 405.117 194.455C405.117 195.053 404.938 195.561 404.578 195.979C404.215 196.396 403.76 196.605 403.213 196.605C402.525 196.605 402.006 196.352 401.654 195.844C401.303 195.336 401.127 194.598 401.127 193.629V193.02H400.793C400.211 193.02 399.92 193.271 399.92 193.775C399.92 194.244 400.15 194.479 400.611 194.479V196.453C399.998 196.453 399.5 196.193 399.117 195.674C398.734 195.15 398.543 194.484 398.543 193.676C398.543 192.867 398.74 192.229 399.135 191.76C399.529 191.291 400.07 191.051 400.758 191.039H403.564C404.146 191.031 404.592 190.941 404.9 190.77H405V192.744ZM403.711 193.98C403.711 193.734 403.658 193.531 403.553 193.371C403.447 193.207 403.328 193.09 403.195 193.02H402.182V193.594C402.182 194.281 402.49 194.625 403.107 194.625C403.287 194.625 403.434 194.564 403.547 194.443C403.656 194.322 403.711 194.168 403.711 193.98ZM401.783 190.172C401.143 190.172 400.576 190.066 400.084 189.855C399.592 189.645 399.213 189.342 398.947 188.947C398.678 188.553 398.543 188.094 398.543 187.57C398.543 186.91 398.766 186.395 399.211 186.023L398.66 185.953V184.16H404.76C405.318 184.16 405.803 184.291 406.213 184.553C406.627 184.811 406.943 185.186 407.162 185.678C407.385 186.17 407.496 186.74 407.496 187.389C407.496 187.854 407.408 188.305 407.232 188.742C407.057 189.176 406.828 189.508 406.547 189.738L405.387 188.912C405.82 188.545 406.037 188.061 406.037 187.459C406.037 186.584 405.588 186.146 404.689 186.146H404.49C404.908 186.525 405.117 187.004 405.117 187.582C405.117 188.355 404.822 188.98 404.232 189.457C403.639 189.934 402.846 190.172 401.854 190.172H401.783ZM401.906 188.191C402.426 188.191 402.838 188.094 403.143 187.898C403.443 187.703 403.594 187.43 403.594 187.078C403.594 186.652 403.451 186.342 403.166 186.146H400.5C400.211 186.338 400.066 186.645 400.066 187.066C400.066 187.418 400.225 187.693 400.541 187.893C400.854 188.092 401.309 188.191 401.906 188.191ZM405.117 179.971C405.117 180.943 404.828 181.73 404.25 182.332C403.668 182.934 402.912 183.234 401.982 183.234H401.818C401.17 183.234 400.598 183.115 400.102 182.877C399.605 182.635 399.223 182.283 398.953 181.822C398.68 181.361 398.543 180.814 398.543 180.182C398.543 179.291 398.82 178.588 399.375 178.072C399.926 177.557 400.695 177.299 401.684 177.299H402.451V181.225C402.807 181.154 403.086 181 403.289 180.762C403.492 180.523 403.594 180.215 403.594 179.836C403.594 179.211 403.375 178.723 402.938 178.371L404.004 177.469C404.344 177.715 404.615 178.064 404.818 178.518C405.018 178.967 405.117 179.451 405.117 179.971ZM400.066 180.193C400.066 180.771 400.449 181.115 401.215 181.225V179.232H401.062C400.746 179.225 400.502 179.305 400.33 179.473C400.154 179.641 400.066 179.881 400.066 180.193ZM416.732 231.445C416.432 231.445 416.197 231.553 416.029 231.768C415.861 231.979 415.688 232.352 415.508 232.887C415.328 233.422 415.154 233.859 414.986 234.199C414.443 235.305 413.697 235.857 412.748 235.857C412.275 235.857 411.859 235.721 411.5 235.447C411.137 235.17 410.855 234.779 410.656 234.275C410.453 233.771 410.352 233.205 410.352 232.576C410.352 231.963 410.461 231.414 410.68 230.93C410.898 230.441 411.211 230.062 411.617 229.793C412.02 229.523 412.48 229.389 413 229.389V231.439C412.652 231.439 412.383 231.547 412.191 231.762C412 231.973 411.904 232.26 411.904 232.623C411.904 232.99 411.986 233.281 412.15 233.496C412.311 233.707 412.516 233.812 412.766 233.812C412.984 233.812 413.184 233.695 413.363 233.461C413.539 233.227 413.723 232.814 413.914 232.225C414.102 231.635 414.305 231.15 414.523 230.771C415.055 229.85 415.787 229.389 416.721 229.389C417.467 229.389 418.053 229.67 418.479 230.232C418.904 230.795 419.117 231.566 419.117 232.547C419.117 233.238 418.994 233.865 418.748 234.428C418.498 234.986 418.158 235.408 417.729 235.693C417.295 235.975 416.797 236.115 416.234 236.115V234.053C416.691 234.053 417.029 233.936 417.248 233.701C417.463 233.463 417.57 233.078 417.57 232.547C417.57 232.207 417.498 231.939 417.354 231.744C417.205 231.545 416.998 231.445 416.732 231.445ZM419.117 225.357C419.117 226.33 418.828 227.117 418.25 227.719C417.668 228.32 416.912 228.621 415.982 228.621H415.818C415.17 228.621 414.598 228.502 414.102 228.264C413.605 228.021 413.223 227.67 412.953 227.209C412.68 226.748 412.543 226.201 412.543 225.568C412.543 224.678 412.82 223.975 413.375 223.459C413.926 222.943 414.695 222.686 415.684 222.686H416.451V226.611C416.807 226.541 417.086 226.387 417.289 226.148C417.492 225.91 417.594 225.602 417.594 225.223C417.594 224.598 417.375 224.109 416.938 223.758L418.004 222.855C418.344 223.102 418.615 223.451 418.818 223.904C419.018 224.354 419.117 224.838 419.117 225.357ZM414.066 225.58C414.066 226.158 414.449 226.502 415.215 226.611V224.619H415.062C414.746 224.611 414.502 224.691 414.33 224.859C414.154 225.027 414.066 225.268 414.066 225.58ZM414.447 218.051L414.4 218.701C414.4 219.322 414.596 219.721 414.986 219.896H419V221.871H412.66V220.02L413.475 219.955C412.854 219.623 412.543 219.16 412.543 218.566C412.543 218.355 412.566 218.172 412.613 218.016L414.447 218.051ZM416.65 214.705L412.66 213.703V211.623L419 213.691V215.707L412.66 217.775V215.689L416.65 214.705ZM419 208.951V210.932H412.66V208.951H419ZM411.025 211.049C410.744 211.049 410.514 210.947 410.334 210.744C410.154 210.541 410.064 210.277 410.064 209.953C410.064 209.629 410.154 209.365 410.334 209.162C410.514 208.959 410.744 208.857 411.025 208.857C411.307 208.857 411.537 208.959 411.717 209.162C411.896 209.365 411.986 209.629 411.986 209.953C411.986 210.277 411.896 210.541 411.717 210.744C411.537 210.947 411.307 211.049 411.025 211.049ZM417.594 205.049C417.594 204.771 417.52 204.557 417.371 204.404C417.219 204.252 417.008 204.178 416.738 204.182V202.33C417.434 202.33 418.004 202.58 418.449 203.08C418.895 203.576 419.117 204.217 419.117 205.002C419.117 205.924 418.828 206.65 418.25 207.182C417.672 207.713 416.871 207.979 415.848 207.979H415.766C415.125 207.979 414.561 207.861 414.072 207.627C413.58 207.389 413.203 207.047 412.941 206.602C412.676 206.156 412.543 205.629 412.543 205.02C412.543 204.195 412.771 203.541 413.229 203.057C413.686 202.572 414.305 202.33 415.086 202.33V204.182C414.758 204.182 414.506 204.262 414.33 204.422C414.154 204.582 414.066 204.797 414.066 205.066C414.066 205.578 414.393 205.877 415.045 205.963C415.252 205.99 415.537 206.004 415.9 206.004C416.537 206.004 416.979 205.928 417.225 205.775C417.471 205.623 417.594 205.381 417.594 205.049ZM419.117 198.428C419.117 199.4 418.828 200.188 418.25 200.789C417.668 201.391 416.912 201.691 415.982 201.691H415.818C415.17 201.691 414.598 201.572 414.102 201.334C413.605 201.092 413.223 200.74 412.953 200.279C412.68 199.818 412.543 199.271 412.543 198.639C412.543 197.748 412.82 197.045 413.375 196.529C413.926 196.014 414.695 195.756 415.684 195.756H416.451V199.682C416.807 199.611 417.086 199.457 417.289 199.219C417.492 198.98 417.594 198.672 417.594 198.293C417.594 197.668 417.375 197.18 416.938 196.828L418.004 195.926C418.344 196.172 418.615 196.521 418.818 196.975C419.018 197.424 419.117 197.908 419.117 198.428ZM414.066 198.65C414.066 199.229 414.449 199.572 415.215 199.682V197.689H415.062C414.746 197.682 414.502 197.762 414.33 197.93C414.154 198.098 414.066 198.338 414.066 198.65Z" fill="black"/>
<path d="M428.837 42H386.163C383.864 42 382 46.2396 382 51.4694V148.531C382 153.76 383.864 158 386.163 158H428.837C431.136 158 433 153.76 433 148.531V51.4694C433 46.2396 431.136 42 428.837 42Z" fill="#6DB33F"/>
<path d="M402.105 151.381H405V153.438H396.469V150.033C396.469 149.381 396.59 148.805 396.832 148.305C397.07 147.801 397.412 147.412 397.857 147.139C398.299 146.861 398.801 146.723 399.363 146.723C400.195 146.723 400.861 147.021 401.361 147.619C401.857 148.213 402.105 149.029 402.105 150.068V151.381ZM400.518 151.381V150.033C400.518 149.635 400.418 149.332 400.219 149.125C400.02 148.914 399.738 148.809 399.375 148.809C398.977 148.809 398.658 148.916 398.42 149.131C398.182 149.346 398.061 149.639 398.057 150.01V151.381H400.518ZM405.117 142.727C405.117 143.699 404.828 144.486 404.25 145.088C403.668 145.689 402.912 145.99 401.982 145.99H401.818C401.17 145.99 400.598 145.871 400.102 145.633C399.605 145.391 399.223 145.039 398.953 144.578C398.68 144.117 398.543 143.57 398.543 142.938C398.543 142.047 398.82 141.344 399.375 140.828C399.926 140.312 400.695 140.055 401.684 140.055H402.451V143.98C402.807 143.91 403.086 143.756 403.289 143.518C403.492 143.279 403.594 142.971 403.594 142.592C403.594 141.967 403.375 141.479 402.938 141.127L404.004 140.225C404.344 140.471 404.615 140.82 404.818 141.273C405.018 141.723 405.117 142.207 405.117 142.727ZM400.066 142.949C400.066 143.527 400.449 143.871 401.215 143.98V141.988H401.062C400.746 141.98 400.502 142.061 400.33 142.229C400.154 142.396 400.066 142.637 400.066 142.949ZM400.447 135.42L400.4 136.07C400.4 136.691 400.596 137.09 400.986 137.266H405V139.24H398.66V137.389L399.475 137.324C398.854 136.992 398.543 136.529 398.543 135.936C398.543 135.725 398.566 135.541 398.613 135.385L400.447 135.42ZM403.219 131.389C403.051 131.389 402.916 131.477 402.814 131.652C402.713 131.828 402.607 132.162 402.498 132.654C402.389 133.146 402.246 133.553 402.07 133.873C401.891 134.193 401.674 134.438 401.42 134.605C401.166 134.773 400.875 134.857 400.547 134.857C399.965 134.857 399.486 134.617 399.111 134.137C398.732 133.656 398.543 133.027 398.543 132.25C398.543 131.414 398.732 130.742 399.111 130.234C399.49 129.727 399.988 129.473 400.605 129.473V131.453C400.098 131.453 399.844 131.721 399.844 132.256C399.844 132.463 399.902 132.637 400.02 132.777C400.133 132.918 400.275 132.988 400.447 132.988C400.623 132.988 400.766 132.902 400.875 132.73C400.984 132.559 401.074 132.285 401.145 131.91C401.215 131.531 401.299 131.199 401.396 130.914C401.725 129.961 402.312 129.484 403.16 129.484C403.738 129.484 404.209 129.742 404.572 130.258C404.936 130.77 405.117 131.434 405.117 132.25C405.117 132.793 405.02 133.277 404.824 133.703C404.629 134.129 404.363 134.461 404.027 134.699C403.691 134.938 403.338 135.057 402.967 135.057V133.211C403.26 133.203 403.475 133.105 403.611 132.918C403.744 132.73 403.811 132.49 403.811 132.197C403.811 131.928 403.756 131.727 403.646 131.594C403.537 131.457 403.395 131.389 403.219 131.389ZM405 126.473V128.453H398.66V126.473H405ZM397.025 128.57C396.744 128.57 396.514 128.469 396.334 128.266C396.154 128.062 396.064 127.799 396.064 127.475C396.064 127.15 396.154 126.887 396.334 126.684C396.514 126.48 396.744 126.379 397.025 126.379C397.307 126.379 397.537 126.48 397.717 126.684C397.896 126.887 397.986 127.15 397.986 127.475C397.986 127.799 397.896 128.062 397.717 128.266C397.537 128.469 397.307 128.57 397.025 128.57ZM403.219 121.932C403.051 121.932 402.916 122.02 402.814 122.195C402.713 122.371 402.607 122.705 402.498 123.197C402.389 123.689 402.246 124.096 402.07 124.416C401.891 124.736 401.674 124.98 401.42 125.148C401.166 125.316 400.875 125.4 400.547 125.4C399.965 125.4 399.486 125.16 399.111 124.68C398.732 124.199 398.543 123.57 398.543 122.793C398.543 121.957 398.732 121.285 399.111 120.777C399.49 120.27 399.988 120.016 400.605 120.016V121.996C400.098 121.996 399.844 122.264 399.844 122.799C399.844 123.006 399.902 123.18 400.02 123.32C400.133 123.461 400.275 123.531 400.447 123.531C400.623 123.531 400.766 123.445 400.875 123.273C400.984 123.102 401.074 122.828 401.145 122.453C401.215 122.074 401.299 121.742 401.396 121.457C401.725 120.504 402.312 120.027 403.16 120.027C403.738 120.027 404.209 120.285 404.572 120.801C404.936 121.312 405.117 121.977 405.117 122.793C405.117 123.336 405.02 123.82 404.824 124.246C404.629 124.672 404.363 125.004 404.027 125.242C403.691 125.48 403.338 125.6 402.967 125.6V123.754C403.26 123.746 403.475 123.648 403.611 123.461C403.744 123.273 403.811 123.033 403.811 122.74C403.811 122.471 403.756 122.27 403.646 122.137C403.537 122 403.395 121.932 403.219 121.932ZM397.084 116.799H398.66V115.756H400.031V116.799H402.932C403.17 116.799 403.336 116.756 403.43 116.67C403.523 116.584 403.57 116.414 403.57 116.16C403.57 115.965 403.559 115.801 403.535 115.668H404.947C405.061 116.023 405.117 116.395 405.117 116.781C405.117 117.461 404.957 117.963 404.637 118.287C404.316 118.611 403.83 118.773 403.178 118.773H400.031V119.582H398.66V118.773H397.084V116.799ZM405.117 111.906C405.117 112.879 404.828 113.666 404.25 114.268C403.668 114.869 402.912 115.17 401.982 115.17H401.818C401.17 115.17 400.598 115.051 400.102 114.812C399.605 114.57 399.223 114.219 398.953 113.758C398.68 113.297 398.543 112.75 398.543 112.117C398.543 111.227 398.82 110.523 399.375 110.008C399.926 109.492 400.695 109.234 401.684 109.234H402.451V113.16C402.807 113.09 403.086 112.936 403.289 112.697C403.492 112.459 403.594 112.15 403.594 111.771C403.594 111.146 403.375 110.658 402.938 110.307L404.004 109.404C404.344 109.65 404.615 110 404.818 110.453C405.018 110.902 405.117 111.387 405.117 111.906ZM400.066 112.129C400.066 112.707 400.449 113.051 401.215 113.16V111.168H401.062C400.746 111.16 400.502 111.24 400.33 111.408C400.154 111.576 400.066 111.816 400.066 112.129ZM398.66 106.621L399.404 106.557C398.83 106.119 398.543 105.516 398.543 104.746C398.543 104.086 398.74 103.594 399.135 103.27C399.529 102.941 400.123 102.771 400.916 102.76H405V104.74H400.998C400.678 104.74 400.443 104.805 400.295 104.934C400.143 105.062 400.066 105.297 400.066 105.637C400.066 106.023 400.219 106.311 400.523 106.498H405V108.473H398.66V106.621ZM397.084 99.3613H398.66V98.3184H400.031V99.3613H402.932C403.17 99.3613 403.336 99.3184 403.43 99.2324C403.523 99.1465 403.57 98.9766 403.57 98.7227C403.57 98.5273 403.559 98.3633 403.535 98.2305H404.947C405.061 98.5859 405.117 98.957 405.117 99.3438C405.117 100.023 404.957 100.525 404.637 100.85C404.316 101.174 403.83 101.336 403.178 101.336H400.031V102.145H398.66V101.336H397.084V99.3613ZM396.469 91.7559L402.404 89.8516L396.469 87.9531V85.2461H405V87.3086H403.008L398.93 87.1094L405 89.1719V90.5312L398.924 92.5996L403.008 92.4004H405V94.457H396.469V91.7559ZM405.117 80.957C405.117 81.9297 404.828 82.7168 404.25 83.3184C403.668 83.9199 402.912 84.2207 401.982 84.2207H401.818C401.17 84.2207 400.598 84.1016 400.102 83.8633C399.605 83.6211 399.223 83.2695 398.953 82.8086C398.68 82.3477 398.543 81.8008 398.543 81.168C398.543 80.2773 398.82 79.5742 399.375 79.0586C399.926 78.543 400.695 78.2852 401.684 78.2852H402.451V82.2109C402.807 82.1406 403.086 81.9863 403.289 81.748C403.492 81.5098 403.594 81.2012 403.594 80.8223C403.594 80.1973 403.375 79.709 402.938 79.3574L404.004 78.4551C404.344 78.7012 404.615 79.0508 404.818 79.5039C405.018 79.9531 405.117 80.4375 405.117 80.957ZM400.066 81.1797C400.066 81.7578 400.449 82.1016 401.215 82.2109V80.2188H401.062C400.746 80.2109 400.502 80.291 400.33 80.459C400.154 80.627 400.066 80.8672 400.066 81.1797ZM403.219 74.166C403.051 74.166 402.916 74.2539 402.814 74.4297C402.713 74.6055 402.607 74.9395 402.498 75.4316C402.389 75.9238 402.246 76.3301 402.07 76.6504C401.891 76.9707 401.674 77.2148 401.42 77.3828C401.166 77.5508 400.875 77.6348 400.547 77.6348C399.965 77.6348 399.486 77.3945 399.111 76.9141C398.732 76.4336 398.543 75.8047 398.543 75.0273C398.543 74.1914 398.732 73.5195 399.111 73.0117C399.49 72.5039 399.988 72.25 400.605 72.25V74.2305C400.098 74.2305 399.844 74.498 399.844 75.0332C399.844 75.2402 399.902 75.4141 400.02 75.5547C400.133 75.6953 400.275 75.7656 400.447 75.7656C400.623 75.7656 400.766 75.6797 400.875 75.5078C400.984 75.3359 401.074 75.0625 401.145 74.6875C401.215 74.3086 401.299 73.9766 401.396 73.6914C401.725 72.7383 402.312 72.2617 403.16 72.2617C403.738 72.2617 404.209 72.5195 404.572 73.0352C404.936 73.5469 405.117 74.2109 405.117 75.0273C405.117 75.5703 405.02 76.0547 404.824 76.4805C404.629 76.9062 404.363 77.2383 404.027 77.4766C403.691 77.7148 403.338 77.834 402.967 77.834V75.9883C403.26 75.9805 403.475 75.8828 403.611 75.6953C403.744 75.5078 403.811 75.2676 403.811 74.9746C403.811 74.7051 403.756 74.5039 403.646 74.3711C403.537 74.2344 403.395 74.166 403.219 74.166ZM403.219 68.0137C403.051 68.0137 402.916 68.1016 402.814 68.2773C402.713 68.4531 402.607 68.7871 402.498 69.2793C402.389 69.7715 402.246 70.1777 402.07 70.498C401.891 70.8184 401.674 71.0625 401.42 71.2305C401.166 71.3984 400.875 71.4824 400.547 71.4824C399.965 71.4824 399.486 71.2422 399.111 70.7617C398.732 70.2812 398.543 69.6523 398.543 68.875C398.543 68.0391 398.732 67.3672 399.111 66.8594C399.49 66.3516 399.988 66.0977 400.605 66.0977V68.0781C400.098 68.0781 399.844 68.3457 399.844 68.8809C399.844 69.0879 399.902 69.2617 400.02 69.4023C400.133 69.543 400.275 69.6133 400.447 69.6133C400.623 69.6133 400.766 69.5273 400.875 69.3555C400.984 69.1836 401.074 68.9102 401.145 68.5352C401.215 68.1562 401.299 67.8242 401.396 67.5391C401.725 66.5859 402.312 66.1094 403.16 66.1094C403.738 66.1094 404.209 66.3672 404.572 66.8828C404.936 67.3945 405.117 68.0586 405.117 68.875C405.117 69.418 405.02 69.9023 404.824 70.3281C404.629 70.7539 404.363 71.0859 404.027 71.3242C403.691 71.5625 403.338 71.6816 402.967 71.6816V69.8359C403.26 69.8281 403.475 69.7305 403.611 69.543C403.744 69.3555 403.811 69.1152 403.811 68.8223C403.811 68.5527 403.756 68.3516 403.646 68.2188C403.537 68.082 403.395 68.0137 403.219 68.0137ZM405 61.6094C404.871 61.6797 404.682 61.7422 404.432 61.7969C404.889 62.1602 405.117 62.668 405.117 63.3203C405.117 63.918 404.938 64.4258 404.578 64.8438C404.215 65.2617 403.76 65.4707 403.213 65.4707C402.525 65.4707 402.006 65.2168 401.654 64.709C401.303 64.2012 401.127 63.4629 401.127 62.4941V61.8848H400.793C400.211 61.8848 399.92 62.1367 399.92 62.6406C399.92 63.1094 400.15 63.3438 400.611 63.3438V65.3184C399.998 65.3184 399.5 65.0586 399.117 64.5391C398.734 64.0156 398.543 63.3496 398.543 62.541C398.543 61.7324 398.74 61.0938 399.135 60.625C399.529 60.1562 400.07 59.916 400.758 59.9043H403.564C404.146 59.8965 404.592 59.8066 404.9 59.6348H405V61.6094ZM403.711 62.8457C403.711 62.5996 403.658 62.3965 403.553 62.2363C403.447 62.0723 403.328 61.9551 403.195 61.8848H402.182V62.459C402.182 63.1465 402.49 63.4902 403.107 63.4902C403.287 63.4902 403.434 63.4297 403.547 63.3086C403.656 63.1875 403.711 63.0332 403.711 62.8457ZM401.783 59.0371C401.143 59.0371 400.576 58.9316 400.084 58.7207C399.592 58.5098 399.213 58.207 398.947 57.8125C398.678 57.418 398.543 56.959 398.543 56.4355C398.543 55.7754 398.766 55.2598 399.211 54.8887L398.66 54.8184V53.0254H404.76C405.318 53.0254 405.803 53.1562 406.213 53.418C406.627 53.6758 406.943 54.0508 407.162 54.543C407.385 55.0352 407.496 55.6055 407.496 56.2539C407.496 56.7188 407.408 57.1699 407.232 57.6074C407.057 58.041 406.828 58.373 406.547 58.6035L405.387 57.7773C405.82 57.4102 406.037 56.9258 406.037 56.3242C406.037 55.4492 405.588 55.0117 404.689 55.0117H404.49C404.908 55.3906 405.117 55.8691 405.117 56.4473C405.117 57.2207 404.822 57.8457 404.232 58.3223C403.639 58.7988 402.846 59.0371 401.854 59.0371H401.783ZM401.906 57.0566C402.426 57.0566 402.838 56.959 403.143 56.7637C403.443 56.5684 403.594 56.2949 403.594 55.9434C403.594 55.5176 403.451 55.207 403.166 55.0117H400.5C400.211 55.2031 400.066 55.5098 400.066 55.9316C400.066 56.2832 400.225 56.5586 400.541 56.7578C400.854 56.957 401.309 57.0566 401.906 57.0566ZM405.117 48.8359C405.117 49.8086 404.828 50.5957 404.25 51.1973C403.668 51.7988 402.912 52.0996 401.982 52.0996H401.818C401.17 52.0996 400.598 51.9805 400.102 51.7422C399.605 51.5 399.223 51.1484 398.953 50.6875C398.68 50.2266 398.543 49.6797 398.543 49.0469C398.543 48.1562 398.82 47.4531 399.375 46.9375C399.926 46.4219 400.695 46.1641 401.684 46.1641H402.451V50.0898C402.807 50.0195 403.086 49.8652 403.289 49.627C403.492 49.3887 403.594 49.0801 403.594 48.7012C403.594 48.0762 403.375 47.5879 402.938 47.2363L404.004 46.334C404.344 46.5801 404.615 46.9297 404.818 47.3828C405.018 47.832 405.117 48.3164 405.117 48.8359ZM400.066 49.0586C400.066 49.6367 400.449 49.9805 401.215 50.0898V48.0977H401.062C400.746 48.0898 400.502 48.1699 400.33 48.3379C400.154 48.5059 400.066 48.7461 400.066 49.0586ZM416.732 115.445C416.432 115.445 416.197 115.553 416.029 115.768C415.861 115.979 415.688 116.352 415.508 116.887C415.328 117.422 415.154 117.859 414.986 118.199C414.443 119.305 413.697 119.857 412.748 119.857C412.275 119.857 411.859 119.721 411.5 119.447C411.137 119.17 410.855 118.779 410.656 118.275C410.453 117.771 410.352 117.205 410.352 116.576C410.352 115.963 410.461 115.414 410.68 114.93C410.898 114.441 411.211 114.062 411.617 113.793C412.02 113.523 412.48 113.389 413 113.389V115.439C412.652 115.439 412.383 115.547 412.191 115.762C412 115.973 411.904 116.26 411.904 116.623C411.904 116.99 411.986 117.281 412.15 117.496C412.311 117.707 412.516 117.812 412.766 117.812C412.984 117.812 413.184 117.695 413.363 117.461C413.539 117.227 413.723 116.814 413.914 116.225C414.102 115.635 414.305 115.15 414.523 114.771C415.055 113.85 415.787 113.389 416.721 113.389C417.467 113.389 418.053 113.67 418.479 114.232C418.904 114.795 419.117 115.566 419.117 116.547C419.117 117.238 418.994 117.865 418.748 118.428C418.498 118.986 418.158 119.408 417.729 119.693C417.295 119.975 416.797 120.115 416.234 120.115V118.053C416.691 118.053 417.029 117.936 417.248 117.701C417.463 117.463 417.57 117.078 417.57 116.547C417.57 116.207 417.498 115.939 417.354 115.744C417.205 115.545 416.998 115.445 416.732 115.445ZM419.117 109.357C419.117 110.33 418.828 111.117 418.25 111.719C417.668 112.32 416.912 112.621 415.982 112.621H415.818C415.17 112.621 414.598 112.502 414.102 112.264C413.605 112.021 413.223 111.67 412.953 111.209C412.68 110.748 412.543 110.201 412.543 109.568C412.543 108.678 412.82 107.975 413.375 107.459C413.926 106.943 414.695 106.686 415.684 106.686H416.451V110.611C416.807 110.541 417.086 110.387 417.289 110.148C417.492 109.91 417.594 109.602 417.594 109.223C417.594 108.598 417.375 108.109 416.938 107.758L418.004 106.855C418.344 107.102 418.615 107.451 418.818 107.904C419.018 108.354 419.117 108.838 419.117 109.357ZM414.066 109.58C414.066 110.158 414.449 110.502 415.215 110.611V108.619H415.062C414.746 108.611 414.502 108.691 414.33 108.859C414.154 109.027 414.066 109.268 414.066 109.58ZM414.447 102.051L414.4 102.701C414.4 103.322 414.596 103.721 414.986 103.896H419V105.871H412.66V104.02L413.475 103.955C412.854 103.623 412.543 103.16 412.543 102.566C412.543 102.355 412.566 102.172 412.613 102.016L414.447 102.051ZM416.65 98.7051L412.66 97.7031V95.623L419 97.6914V99.707L412.66 101.775V99.6895L416.65 98.7051ZM419 92.9512V94.9316H412.66V92.9512H419ZM411.025 95.0488C410.744 95.0488 410.514 94.9473 410.334 94.7441C410.154 94.541 410.064 94.2773 410.064 93.9531C410.064 93.6289 410.154 93.3652 410.334 93.1621C410.514 92.959 410.744 92.8574 411.025 92.8574C411.307 92.8574 411.537 92.959 411.717 93.1621C411.896 93.3652 411.986 93.6289 411.986 93.9531C411.986 94.2773 411.896 94.541 411.717 94.7441C411.537 94.9473 411.307 95.0488 411.025 95.0488ZM417.594 89.0488C417.594 88.7715 417.52 88.5566 417.371 88.4043C417.219 88.252 417.008 88.1777 416.738 88.1816V86.3301C417.434 86.3301 418.004 86.5801 418.449 87.0801C418.895 87.5762 419.117 88.2168 419.117 89.002C419.117 89.9238 418.828 90.6504 418.25 91.1816C417.672 91.7129 416.871 91.9785 415.848 91.9785H415.766C415.125 91.9785 414.561 91.8613 414.072 91.627C413.58 91.3887 413.203 91.0469 412.941 90.6016C412.676 90.1562 412.543 89.6289 412.543 89.0195C412.543 88.1953 412.771 87.541 413.229 87.0566C413.686 86.5723 414.305 86.3301 415.086 86.3301V88.1816C414.758 88.1816 414.506 88.2617 414.33 88.4219C414.154 88.582 414.066 88.7969 414.066 89.0664C414.066 89.5781 414.393 89.877 415.045 89.9629C415.252 89.9902 415.537 90.0039 415.9 90.0039C416.537 90.0039 416.979 89.9277 417.225 89.7754C417.471 89.623 417.594 89.3809 417.594 89.0488ZM419.117 82.4277C419.117 83.4004 418.828 84.1875 418.25 84.7891C417.668 85.3906 416.912 85.6914 415.982 85.6914H415.818C415.17 85.6914 414.598 85.5723 414.102 85.334C413.605 85.0918 413.223 84.7402 412.953 84.2793C412.68 83.8184 412.543 83.2715 412.543 82.6387C412.543 81.748 412.82 81.0449 413.375 80.5293C413.926 80.0137 414.695 79.7559 415.684 79.7559H416.451V83.6816C416.807 83.6113 417.086 83.457 417.289 83.2188C417.492 82.9805 417.594 82.6719 417.594 82.293C417.594 81.668 417.375 81.1797 416.938 80.8281L418.004 79.9258C418.344 80.1719 418.615 80.5215 418.818 80.9746C419.018 81.4238 419.117 81.9082 419.117 82.4277ZM414.066 82.6504C414.066 83.2285 414.449 83.5723 415.215 83.6816V81.6895H415.062C414.746 81.6816 414.502 81.7617 414.33 81.9297C414.154 82.0977 414.066 82.3379 414.066 82.6504Z" fill="black"/>
<path d="M163.05 3L151 15.6718V27L163.033 14.9467L175 3H163.05Z" fill="url(#paint0_linear)"/>
<path d="M163.033 14.9468L175 27.0001H151L163.033 14.9468Z" fill="url(#paint1_linear)"/>
<path d="M163.05 3L151 15.6718V3H163.05Z" fill="url(#paint2_linear)"/>
<path d="M477.177 77.0976L475.003 84.2696L467.77 82.5848C460.911 80.9877 456.147 89.3209 460.946 94.5185L466.009 100.012L460.946 105.496C456.147 110.7 460.911 119.03 467.77 117.433L475.003 115.748L477.177 122.904C479.235 129.699 488.771 129.699 490.822 122.904L492.997 115.748L500.23 117.433C507.089 119.03 511.853 110.697 507.054 105.496L501.991 100.012L507.054 94.5251C511.853 89.3209 507.089 80.9943 500.23 82.5913L492.997 84.2761L490.822 77.1041C488.764 70.2997 479.235 70.2997 477.177 77.0976Z" fill="#6B70FC"/>
<path d="M488 99.2246V101.27H484.438V104.299H488V106.355H479.469V104.299H482.855V101.27H479.469V99.2246H488ZM488 92.0879V98.041H486.711L483.828 95.2988C483.059 94.623 482.447 94.2852 481.994 94.2852C481.627 94.2852 481.348 94.3652 481.156 94.5254C480.965 94.6855 480.869 94.918 480.869 95.2227C480.869 95.5234 480.998 95.7676 481.256 95.9551C481.51 96.1426 481.828 96.2363 482.211 96.2363V98.2168C481.688 98.2168 481.205 98.0859 480.764 97.8242C480.318 97.5625 479.971 97.1992 479.721 96.7344C479.471 96.2695 479.346 95.75 479.346 95.1758C479.346 94.2539 479.559 93.5449 479.984 93.0488C480.41 92.5488 481.021 92.2988 481.818 92.2988C482.154 92.2988 482.482 92.3613 482.803 92.4863C483.119 92.6113 483.453 92.8066 483.805 93.0723C484.152 93.334 484.619 93.7578 485.205 94.3438L486.477 95.4453V92.0879H488Z" fill="black"/>
<path d="M198.557 4.45713C198.232 5.25734 197.806 6.0137 197.29 6.70832C192.758 1.93287 185.279 1.80914 180.601 6.41179C175.924 11.0139 175.777 18.6101 180.309 23.361C180.455 23.5338 180.626 23.6826 180.797 23.8309L181.235 24.2266C186.205 28.4826 193.66 27.8394 197.851 22.792C199.469 20.8401 200.432 18.4348 200.603 15.9131C200.945 12.919 200.043 9.05924 198.557 4.45713ZM182.502 23.9546C182.161 24.4 181.527 24.4496 181.089 24.1029C180.65 23.7562 180.601 23.1136 180.943 22.6682C181.284 22.2229 181.917 22.1733 182.356 22.5194C182.77 22.8661 182.843 23.5093 182.502 23.9546ZM198.484 20.3669C195.585 24.3013 189.348 22.9648 185.377 23.1626C185.377 23.1626 184.67 23.2122 183.964 23.3114C183.964 23.3114 184.232 23.1877 184.573 23.064C187.374 22.0741 188.69 21.8762 190.395 20.9856C193.587 19.3275 196.779 15.6907 197.412 11.9296C196.194 15.5419 192.491 18.6597 189.128 19.9216C186.814 20.7877 182.648 21.6288 182.648 21.6288L182.478 21.5301C179.651 20.1189 179.554 13.8843 184.719 11.88C186.984 10.9894 189.128 11.4843 191.59 10.8902C194.196 10.2715 197.217 8.29231 198.436 5.69392C199.799 9.87524 201.456 16.3584 198.484 20.3669ZM207.303 19.7728C206.986 19.5755 206.792 19.2288 206.816 18.8576C206.816 18.2635 207.279 17.7691 207.864 17.7691H207.888C208.083 17.7691 208.278 17.8181 208.449 17.9173C209.412 18.5983 210.555 18.9853 211.738 19.0309C212.858 19.0309 213.516 18.536 213.516 17.7691V17.7195C213.516 16.8037 212.298 16.5072 210.958 16.0864C209.277 15.5915 207.377 14.8987 207.377 12.6715V12.6224C207.377 10.4198 209.179 9.08377 211.445 9.08377C212.712 9.10884 213.93 9.43044 215.051 10.024C215.441 10.2219 215.684 10.5931 215.684 11.0384C215.684 11.6326 215.197 12.1275 214.612 12.1275H214.588C214.418 12.1275 214.247 12.0779 214.076 12.0038C213.258 11.5336 212.34 11.2622 211.396 11.2118C210.373 11.2118 209.789 11.7067 209.789 12.3499V12.3995C209.789 13.2656 211.031 13.6117 212.371 14.0571C214.052 14.5771 215.928 15.3691 215.928 17.4469V17.4965C215.928 19.9461 214.052 21.1584 211.689 21.1584C210.13 21.1338 208.595 20.664 207.303 19.7728ZM216.902 10.4443C216.878 9.72697 217.463 9.13337 218.17 9.10884H218.194C218.925 9.10884 219.509 9.70244 219.509 10.4448V11.2368C220.362 10.024 221.556 9.05924 223.407 9.05924C226.088 9.05924 228.719 11.2118 228.719 15.0965V15.1461C228.719 19.0059 226.111 21.1834 223.407 21.1834C221.507 21.1834 220.313 20.2181 219.509 19.1301V23.2368C219.509 23.9792 218.924 24.5733 218.194 24.5733C217.487 24.5733 216.902 23.9792 216.902 23.2618V10.4448V10.4443ZM226.088 15.1461V15.0965C226.088 12.8448 224.601 11.3846 222.823 11.3846C221.044 11.3846 219.485 12.8939 219.485 15.0965V15.1461C219.485 17.3728 221.044 18.8576 222.823 18.8576C224.601 18.8576 226.088 17.4469 226.088 15.1456V15.1461ZM229.742 10.4443C229.717 9.72697 230.302 9.13337 231.009 9.10884H231.033C231.764 9.10884 232.349 9.70244 232.349 10.4448V11.088C232.471 10.0982 234.079 9.10884 235.224 9.10884C235.382 9.09774 235.541 9.11773 235.692 9.16768C235.842 9.21762 235.982 9.29654 236.102 9.39992C236.222 9.50329 236.32 9.6291 236.391 9.77014C236.461 9.91119 236.503 10.0647 236.514 10.2219V10.4198C236.514 11.0635 236.076 11.6075 235.467 11.7067C233.591 12.0283 232.324 13.6864 232.324 15.9872V19.8224C232.327 19.9947 232.294 20.1658 232.229 20.3255C232.164 20.4853 232.067 20.6305 231.945 20.7527C231.822 20.8749 231.676 20.9716 231.515 21.0371C231.355 21.1027 231.183 21.1357 231.009 21.1344C230.666 21.1335 230.337 20.9975 230.095 20.7562C229.852 20.5148 229.717 20.188 229.717 19.8475V19.8224L229.742 10.4448V10.4443ZM237.562 10.4694C237.538 9.75204 238.122 9.15791 238.829 9.13337H238.854C239.584 9.13337 240.169 9.72697 240.169 10.4694V19.8475C240.171 20.0198 240.139 20.1908 240.074 20.3505C240.009 20.5102 239.912 20.6554 239.789 20.7776C239.667 20.8997 239.521 20.9964 239.36 21.0619C239.2 21.1274 239.027 21.1603 238.854 21.1589C238.122 21.1589 237.562 20.5648 237.562 19.8469V10.4699V10.4694ZM241.509 10.4694C241.485 9.75204 242.07 9.15791 242.776 9.13337H242.8C243.531 9.13337 244.116 9.72697 244.116 10.4694V11.0139C244.896 9.77657 246.26 9.05924 247.697 9.10884C250.28 9.10884 251.766 10.8656 251.766 13.5622V19.8224C251.79 20.5402 251.23 21.1093 250.523 21.1344H250.475C249.768 21.1589 249.183 20.5648 249.159 19.8475V14.3792C249.159 12.5728 248.282 11.5334 246.698 11.5334C245.188 11.5334 244.116 12.6224 244.116 14.4283V19.8469C244.116 20.5898 243.531 21.1834 242.8 21.1834C242.07 21.1834 241.485 20.5898 241.485 19.8475L241.509 10.4694ZM263.314 9.08431C262.583 9.08431 261.998 9.6779 261.998 10.4203V11.2118C261.146 9.9995 259.952 9.03471 258.101 9.03471C255.421 9.03471 252.789 11.1872 252.789 15.072V15.1211C252.789 18.9813 255.396 21.1584 258.101 21.1584C260 21.1584 261.194 20.1936 261.998 19.1296C261.877 21.233 260.61 22.3216 258.392 22.3216C257.175 22.3216 255.957 22.0245 254.885 21.4064C254.738 21.3317 254.592 21.3072 254.422 21.3072C253.813 21.3072 253.325 21.777 253.301 22.3957C253.301 22.8661 253.593 23.3114 254.032 23.4597C255.407 24.146 256.926 24.502 258.466 24.4992C260.536 24.4992 262.144 24.0042 263.168 22.9402C264.118 21.9749 264.63 20.5152 264.63 18.5605V10.4448C264.636 10.2712 264.607 10.0981 264.545 9.9356C264.483 9.77306 264.39 9.62425 264.27 9.49775C264.15 9.37124 264.006 9.26954 263.846 9.19849C263.686 9.12745 263.514 9.08846 263.338 9.08377H263.314V9.08431ZM258.709 18.8576C256.907 18.8576 255.445 17.4229 255.445 15.1211V15.072C255.445 12.8203 256.931 11.36 258.709 11.36C260.488 11.36 262.047 12.8694 262.047 15.072V15.1211C262.071 17.3483 260.512 18.8576 258.709 18.8576ZM240.193 5.91632C240.193 6.65925 239.609 7.25285 238.878 7.25285C238.147 7.25285 237.562 6.65925 237.562 5.91686C237.562 5.17446 238.147 4.58086 238.878 4.58086C239.584 4.5558 240.169 5.14993 240.193 5.86726V5.91686V5.91632Z" fill="#6DB33F"/>
<defs>
<linearGradient id="paint0_linear" x1="158.126" y1="36.2323" x2="180.459" y2="13.899" gradientUnits="userSpaceOnUse">
<stop offset="0.10753" stop-color="#C757BC"/>
<stop offset="0.17288" stop-color="#CD5CA9"/>
<stop offset="0.49191" stop-color="#E8744F"/>
<stop offset="0.71582" stop-color="#F88316"/>
<stop offset="0.82323" stop-color="#FF8900"/>
</linearGradient>
<linearGradient id="paint1_linear" x1="169.511" y1="30.0366" x2="171.788" y2="21.0102" gradientUnits="userSpaceOnUse">
<stop stop-color="#00AFFF"/>
<stop offset="0.556122" stop-color="#5282FF"/>
<stop offset="1" stop-color="#945DFF"/>
</linearGradient>
<linearGradient id="paint2_linear" x1="160.03" y1="21.199" x2="168.672" y2="14.1252" gradientUnits="userSpaceOnUse">
<stop stop-color="#00AFFF"/>
<stop offset="0.556122" stop-color="#5282FF"/>
<stop offset="1" stop-color="#945DFF"/>
</linearGradient>
</defs>
</svg>
